<svg xmlns="http://www.w3.org/2000/svg" height="1296" width="1546" version="1.1" xmlns:xlink="http://www.w3.org/1999/xlink" xmlns:svgjs="http://svgjs.com/svgjs"><rect fill="#ffffff" width="1546" height="1296"></rect><g><path d="M1286.94 956.45L1317.29 953.85 1284.33 1007.84 1353.18 1005.24 1307.13 1037.28 1348.62 1073.56" stroke="#264c9a" stroke-width="4" stroke-linecap="round" stroke-linejoin="round" opacity="1" fill="none"></path></g><g><path d="M1121.5 230.2C1129.4 230.2 1135.8 223.8 1135.8 215.9 1135.8 208 1129.4 201.6 1121.5 201.6 1113.6 201.6 1107.2 208 1107.2 215.9 1107.2 223.8 1113.6 230.2 1121.5 230.2Z" fill="#ffffff" opacity="1" stroke-width="4" stroke="none"></path></g><g><path d="M1173.35 800.8C1203.05 822.3 1270.05 797 1311.45 772.2 1357.45 744.6 1359.55 714.9 1341.15 714.9 1315.55 714.9 1252.15 793.7 1288.95 811 1319.35 825.4 1374.85 799.8 1389.15 816.1 1403.45 832.4 1409.65 868.3 1449.45 886.7" stroke="#ffffff" stroke-width="4" stroke-linecap="round" stroke-linejoin="round" opacity="1" fill="none"></path></g><g><path d="M303.3 1036.3C312.36 1036.3 319.7 1028.96 319.7 1019.9 319.7 1010.84 312.36 1003.5 303.3 1003.5 294.24 1003.5 286.9 1010.84 286.9 1019.9 286.9 1028.96 294.24 1036.3 303.3 1036.3Z" fill="#243767" opacity="1" stroke-width="4" stroke="none"></path></g><g><path d="M1150.7 1118.1C1160.58 1118.1 1168.6 1110.09 1168.6 1100.2 1168.6 1090.31 1160.58 1082.3 1150.7 1082.3 1140.81 1082.3 1132.8 1090.31 1132.8 1100.2 1132.8 1110.09 1140.81 1118.1 1150.7 1118.1Z" fill="#6c98c7" opacity="1" stroke-width="4" stroke="none"></path></g><g><path d="M162.26 513.5C172.7 513.5 181.16 505.04 181.16 494.6 181.16 484.16 172.7 475.7 162.26 475.7 151.82 475.7 143.36 484.16 143.36 494.6 143.36 505.04 151.82 513.5 162.26 513.5Z" fill="#6c98c7" opacity="1" stroke-width="4" stroke="none"></path></g><g><path d="M248.1 642.93C259.07 635.02 261.56 619.71 253.65 608.74 245.73 597.76 230.42 595.27 219.45 603.19 208.47 611.1 205.99 626.41 213.9 637.39 221.81 648.36 237.12 650.85 248.1 642.93Z" fill="#efdcd7" opacity="1" stroke-width="4" stroke="none"></path></g><g><path d="M105.05 854.4C144.55 819.6 217.75 772.6 279.05 812.5 279.05 812.5 218.75 733.7 249.45 696.9 289.55 648.7 407.55 779.7 389.85 802.2 371.65 825.2 330.95 722.3 352.25 665.1 369.05 620.1 449.25 687.6 462.15 727.5" stroke="#ffffff" stroke-width="4" stroke-linecap="round" stroke-linejoin="round" opacity="1" fill="none"></path></g><g><path d="M1182.78 322.8H1098.88C1098.88 322.8 1089.18 372.4 1118.38 398.7H1202.28C1173.08 372.4 1182.78 322.8 1182.78 322.8Z" fill="#efdcd7" opacity="1" stroke-width="4" stroke="none"></path><path d="M1065.18 279.9H981.28C981.28 279.9 971.58 329.5 1000.78 355.8H1084.68C1055.38 329.5 1065.18 279.9 1065.18 279.9Z" fill="#e7eff9" opacity="1" stroke-width="4" stroke="none"></path></g><g><path d="M858.25 161.3H944.75C964.65 161.3 980.75 177.4 980.75 197.3V198.9C980.75 218.8 964.65 234.9 944.75 234.9H858.25C838.35 234.9 822.25 218.8 822.25 198.9V197.3C822.25 177.4 838.35 161.3 858.25 161.3Z" fill="#264c9a" opacity="1" stroke-width="4" stroke="none"></path><path d="M874.05 202.9C879.96 202.9 884.75 198.11 884.75 192.2 884.75 186.29 879.96 181.5 874.05 181.5 868.14 181.5 863.35 186.29 863.35 192.2 863.35 198.11 868.14 202.9 874.05 202.9Z" stroke="#ffffff" stroke-width="4" stroke-linecap="round" stroke-linejoin="round" opacity="1" fill="none"></path><path d="M882.65 198.7L869.75 214.8" stroke="#ffffff" stroke-width="4" stroke-linecap="round" stroke-linejoin="round" opacity="1" fill="none"></path><path d="M907.35 202.9C913.26 202.9 918.05 198.11 918.05 192.2 918.05 186.29 913.26 181.5 907.35 181.5 901.44 181.5 896.65 186.29 896.65 192.2 896.65 198.11 901.44 202.9 907.35 202.9Z" stroke="#ffffff" stroke-width="4" stroke-linecap="round" stroke-linejoin="round" opacity="1" fill="none"></path><path d="M915.95 198.7L903.05 214.8" stroke="#ffffff" stroke-width="4" stroke-linecap="round" stroke-linejoin="round" opacity="1" fill="none"></path><path d="M936.35 190.6V205.7" stroke="#ffffff" stroke-width="4" stroke-linecap="round" stroke-linejoin="round" opacity="1" fill="none"></path><path d="M943.85 198.2H928.85" stroke="#ffffff" stroke-width="4" stroke-linecap="round" stroke-linejoin="round" opacity="1" fill="none"></path></g><g><path d="M990.22 401.1L1060.28 401.16C1064.08 401.16 1067.84 401.9 1071.35 403.35 1074.86 404.81 1078.05 406.94 1080.73 409.64 1083.41 412.32 1085.54 415.52 1086.98 419.03 1088.42 422.54 1089.16 426.31 1089.14 430.11L1089.08 500.17C1089.09 503.97 1088.34 507.73 1086.89 511.24 1085.43 514.75 1083.3 517.94 1080.61 520.62 1077.92 523.3 1074.73 525.43 1071.21 526.87 1067.7 528.31 1063.93 529.05 1060.14 529.03L990.08 528.97C986.28 528.98 982.52 528.23 979.01 526.78 975.49 525.32 972.31 523.19 969.62 520.5 966.94 517.81 964.82 514.62 963.38 511.1 961.93 507.59 961.19 503.82 961.21 500.03L961.27 429.97C961.31 422.31 964.37 414.98 969.8 409.58 975.22 404.17 982.56 401.12 990.22 401.1V401.1Z" fill="#6c98c7" opacity="1" stroke-width="4" stroke="none"></path><path d="M1011.37 447.78L992.95 466.2" stroke="#000000" stroke-width="4" stroke-linecap="round" stroke-linejoin="round" opacity="1" fill="none"></path><path d="M992.95 447.78L1011.37 466.2" stroke="#000000" stroke-width="4" stroke-linecap="round" stroke-linejoin="round" opacity="1" fill="none"></path><path d="M1058.23 447.81L1039.81 466.22" stroke="#000000" stroke-width="4" stroke-linecap="round" stroke-linejoin="round" opacity="1" fill="none"></path><path d="M1039.81 447.8L1058.31 466.29" stroke="#000000" stroke-width="4" stroke-linecap="round" stroke-linejoin="round" opacity="1" fill="none"></path><path d="M1017.51 487.65L1033.77 487.61" stroke="#000000" stroke-width="4" stroke-linecap="round" stroke-linejoin="round" opacity="1" fill="none"></path></g><g><path d="M486.16 1036.64C479.01 1036.63 472.16 1033.78 467.1 1028.73 462.04 1023.67 459.2 1016.82 459.19 1009.67V784.11C459.19 776.95 462.03 770.09 467.09 765.02 472.15 759.95 479 757.1 486.16 757.08H679.22C686.37 757.1 693.23 759.95 698.29 765.02 703.34 770.09 706.18 776.95 706.18 784.11V1009.67C706.17 1016.82 703.33 1023.67 698.28 1028.73 693.22 1033.78 686.36 1036.63 679.22 1036.64H486.16Z" fill="#6c98c7" opacity="1" stroke-width="4" stroke="none"></path><path d="M537.08 966.7C539.99 954.38 532.36 942.04 520.04 939.13 507.73 936.23 495.39 943.86 492.48 956.17 489.57 968.49 497.2 980.82 509.52 983.73 521.83 986.64 534.17 979.01 537.08 966.7Z" fill="#ffffff" opacity="1" stroke-width="4" stroke="none"></path><path d="M514.06 959.71H504.56" stroke="#000000" stroke-width="4" stroke-linecap="round" stroke-linejoin="round" opacity="1" fill="none"></path><path d="M514.06 964.27H504.56" stroke="#000000" stroke-width="4" stroke-linecap="round" stroke-linejoin="round" opacity="1" fill="none"></path><path d="M521.89 968.27C520.65 969.5 519.07 970.34 517.34 970.68 515.63 971.01 513.84 970.83 512.22 970.16 510.61 969.49 509.22 968.35 508.25 966.89 507.28 965.43 506.76 963.71 506.76 961.96 506.76 960.21 507.28 958.49 508.25 957.03 509.22 955.58 510.61 954.44 512.22 953.77 513.84 953.09 515.63 952.91 517.34 953.24 519.07 953.58 520.65 954.42 521.89 955.66" stroke="#000000" stroke-width="4" stroke-linecap="round" stroke-linejoin="round" opacity="1" fill="none"></path><path d="M598.89 977.63C607.83 968.69 607.83 954.18 598.89 945.24 589.94 936.29 575.43 936.29 566.48 945.24 557.54 954.18 557.54 968.69 566.48 977.63 575.43 986.58 589.94 986.58 598.89 977.63Z" fill="#ffffff" opacity="1" stroke-width="4" stroke="none"></path><path d="M574.74 952.77L582.52 960.55 590.3 952.77" stroke="#000000" stroke-width="4" stroke-linecap="round" stroke-linejoin="round" opacity="1" fill="none"></path><path d="M582.52 960.55V971.16" stroke="#000000" stroke-width="4" stroke-linecap="round" stroke-linejoin="round" opacity="1" fill="none"></path><path d="M578.08 962.27H586.97" stroke="#000000" stroke-width="4" stroke-linecap="round" stroke-linejoin="round" opacity="1" fill="none"></path><path d="M672.95 966.7C675.86 954.38 668.23 942.04 655.91 939.13 643.6 936.23 631.26 943.86 628.35 956.17 625.44 968.49 633.07 980.82 645.39 983.73 657.7 986.64 670.04 979.01 672.95 966.7Z" fill="#243767" opacity="1" stroke-width="4" stroke="none"></path><path d="M648.65 971.16V952.82H654.49C655.1 952.82 655.72 952.94 656.29 953.18 656.86 953.42 657.39 953.77 657.83 954.2 658.27 954.64 658.62 955.16 658.85 955.73 659.09 956.31 659.21 956.92 659.21 957.54 659.21 958.16 659.09 958.78 658.85 959.35 658.62 959.92 658.27 960.45 657.83 960.88 657.39 961.32 656.86 961.67 656.29 961.91 655.72 962.15 655.1 962.27 654.49 962.27H645.32" stroke="#000000" stroke-width="4" stroke-linecap="round" stroke-linejoin="round" opacity="1" fill="none"></path><path d="M645.32 966.94H652.54" stroke="#000000" stroke-width="4" stroke-linecap="round" stroke-linejoin="round" opacity="1" fill="none"></path><path d="M495.16 886.49C494.28 886.49 493.42 886.13 492.79 885.5 492.16 884.87 491.81 884.02 491.81 883.13 491.81 882.25 492.16 881.4 492.79 880.77 493.42 880.14 494.28 879.78 495.16 879.78H670.21C671.1 879.78 671.95 880.14 672.58 880.77 673.21 881.4 673.56 882.25 673.56 883.13 673.56 884.02 673.21 884.87 672.58 885.5 671.95 886.13 671.1 886.49 670.21 886.49H495.16Z" fill="#ffffff" opacity="1" stroke-width="4" stroke="none"></path><path d="M578.85 904.05C587.3 904.05 594.15 897.19 594.15 888.75 594.15 880.3 587.3 873.45 578.85 873.45 570.41 873.45 563.56 880.3 563.56 888.75 563.56 897.19 570.41 904.05 578.85 904.05Z" fill="#3c3645" opacity="0.2" stroke-width="4" stroke="none"></path><path d="M578.85 898.6C587.3 898.6 594.15 891.75 594.15 883.3 594.15 874.85 587.3 868 578.85 868 570.41 868 563.56 874.85 563.56 883.3 563.56 891.75 570.41 898.6 578.85 898.6Z" fill="#9e76dd" opacity="1" stroke-width="4" stroke="none"></path><path d="M557.85 1021.95H607.53" stroke="#ffffff" stroke-width="4" stroke-linecap="round" stroke-linejoin="round" opacity="1" fill="none"></path><path d="M495.39 817.3C494.5 817.3 493.65 816.94 493.01 816.32 492.39 815.69 492.04 814.84 492.04 813.95 492.04 813.06 492.39 812.21 493.01 811.58 493.65 810.95 494.5 810.6 495.39 810.6H670.44C671.32 810.6 672.17 810.95 672.8 811.58 673.43 812.21 673.79 813.06 673.79 813.95 673.79 814.84 673.43 815.69 672.8 816.32 672.17 816.94 671.32 817.3 670.44 817.3H495.39Z" fill="#ffffff" opacity="1" stroke-width="4" stroke="none"></path><path d="M628.37 829.14C636.81 829.14 643.67 822.28 643.67 813.84 643.67 805.39 636.81 798.54 628.37 798.54 619.92 798.54 613.07 805.39 613.07 813.84 613.07 822.28 619.92 829.14 628.37 829.14Z" fill="#000000" opacity="1" stroke-width="4" stroke="none"></path></g><g><path d="M330.72 602.43C321.84 602.41 313.33 598.88 307.05 592.6 300.77 586.32 297.23 577.81 297.23 568.93V251.47C297.23 242.59 300.77 234.08 307.05 227.8 313.33 221.52 321.84 217.98 330.72 217.97H742.6C751.48 217.98 759.99 221.52 766.27 227.8 772.55 234.08 776.08 242.59 776.09 251.47V568.93C776.08 577.81 772.55 586.32 766.27 592.6 759.99 598.88 751.48 602.41 742.6 602.43H330.72Z" fill="#ffffff" opacity="1" stroke-width="4" stroke="none"></path><path d="M297.25 289.93H777.57" stroke="#ffffff" stroke-width="4" opacity="1" fill="none"></path><path d="M332.47 265.95C339.5 265.95 345.21 260.25 345.21 253.22 345.21 246.18 339.5 240.48 332.47 240.48 325.43 240.48 319.73 246.18 319.73 253.22 319.73 260.25 325.43 265.95 332.47 265.95Z" fill="#ffffff" opacity="1" stroke-width="4" stroke="none"></path><path d="M371.07 265.95C378.11 265.95 383.81 260.25 383.81 253.22 383.81 246.18 378.11 240.48 371.07 240.48 364.04 240.48 358.33 246.18 358.33 253.22 358.33 260.25 364.04 265.95 371.07 265.95Z" fill="#ffffff" opacity="1" stroke-width="4" stroke="none"></path><path d="M409.67 265.95C416.71 265.95 422.41 260.25 422.41 253.22 422.41 246.18 416.71 240.48 409.67 240.48 402.64 240.48 396.93 246.18 396.93 253.22 396.93 260.25 402.64 265.95 409.67 265.95Z" fill="#ffffff" opacity="1" stroke-width="4" stroke="none"></path></g><g><path d="M520.06 441.31H416.5C416.34 441.31 416.34 441.31 416.34 441.46 416.5 512.69 474 570.19 545.22 570.19V466.48C531.34 466.48 520.06 455.19 520.06 441.31Z" fill="#6c98c7" opacity="1" stroke-width="4" stroke="none"></path><path d="M545.22 416.15V312.59C545.22 312.43 545.22 312.43 545.07 312.43 474 312.59 416.5 370.09 416.34 441.16 416.34 441.31 416.34 441.31 416.5 441.31H520.06C520.06 427.43 531.19 416.15 545.22 416.15Z" fill="#efdcd7" opacity="1" stroke-width="4" stroke="none"></path><path d="M570.39 441.31C570.39 455.19 559.1 466.48 545.22 466.48V570.04C545.22 570.19 545.22 570.19 545.37 570.19 616.6 570.04 674.1 512.54 674.1 441.31H570.39Z" fill="#243767" opacity="1" stroke-width="4" stroke="none"></path><path d="M558.19 419.81L609.89 330.13V329.97C590.37 318.53 567.95 312.59 545.37 312.59 545.22 312.59 545.22 312.59 545.22 312.74V416.3C549.8 416.15 554.22 417.37 558.19 419.81Z" fill="#243767" opacity="1" stroke-width="4" stroke="none"></path><path d="M570.39 441.31H673.95C674.1 441.31 674.1 441.31 674.1 441.16 674.1 395.4 649.7 353 610.19 330.13H610.04L558.34 419.81C565.66 424.38 570.23 432.47 570.39 441.31Z" fill="#264c9a" opacity="1" stroke-width="4" stroke="none"></path></g><g><path d="M271.63 448.99C264.21 448.99 221.6 433.8 221.6 393.89V340.09C221.61 340.08 221.62 340.08 221.63 340.08 221.82 340.08 222.88 340.16 224.61 340.16 233.03 340.16 254.46 338.37 271.62 321.71 288.8 338.37 310.24 340.16 318.65 340.16 320.54 340.16 321.63 340.07 321.64 340.07L321.66 393.89C321.66 433.8 279.05 448.99 271.63 448.99Z" fill="#758293" opacity="0.2" stroke-width="4" stroke="none"></path><path d="M263.09 441.2C255.66 441.2 213.06 426.01 213.06 386.11V332.3C213.07 332.3 213.08 332.3 213.09 332.3 213.27 332.3 214.34 332.38 216.07 332.38 224.48 332.38 245.92 330.58 263.07 313.93 280.26 330.58 301.69 332.38 310.11 332.38 311.99 332.38 313.08 332.28 313.1 332.28L313.12 386.11C313.12 426.01 270.51 441.2 263.09 441.2Z" fill="#e7eff9" opacity="1" stroke-width="4" stroke="none"></path><path d="M263.09 403.66C277.5 403.66 289.19 391.98 289.19 377.56 289.19 363.15 277.5 351.46 263.09 351.46 248.67 351.46 236.99 363.15 236.99 377.56 236.99 391.98 248.67 403.66 263.09 403.66Z" fill="#e7eff9" opacity="1" stroke-width="4" stroke="none"></path><path d="M254.54 376.61L261.5 383.58 271.63 371.55" stroke="#5a5a5a" stroke-width="4" stroke-linecap="round" stroke-linejoin="round" opacity="1" fill="none"></path></g><g><path d="M993.5 616.9H1217.6C1229.1 616.9 1238.5 626.3 1238.5 637.8V894.7C1238.5 906.2 1229.1 915.6 1217.6 915.6H993.5C982 915.6 972.6 906.2 972.6 894.7V637.8C972.6 626.2 982 616.9 993.5 616.9Z" fill="#efdcd7" opacity="1" stroke-width="4" stroke="none"></path><path d="M1020.3 682.9L1029.5 692.1 1044.4 677.3" stroke="#ffffff" stroke-width="4" stroke-linecap="round" stroke-linejoin="round" opacity="1" fill="none"></path><path d="M1038.22 772.62C1042.85 769.41 1044 763.06 1040.8 758.43 1037.59 753.79 1031.24 752.64 1026.61 755.85 1021.97 759.05 1020.82 765.41 1024.02 770.04 1027.23 774.67 1033.59 775.83 1038.22 772.62Z" stroke="#ffffff" stroke-width="4" stroke-linecap="round" stroke-linejoin="round" opacity="1" fill="none"></path><path d="M1038.21 852.02C1042.84 848.81 1044 842.46 1040.79 837.83 1037.59 833.2 1031.23 832.04 1026.6 835.25 1021.97 838.45 1020.81 844.81 1024.02 849.44 1027.23 854.07 1033.58 855.23 1038.21 852.02Z" stroke="#ffffff" stroke-width="4" stroke-linecap="round" stroke-linejoin="round" opacity="1" fill="none"></path><path d="M1073.3 686.6H1166.3" stroke="#243767" stroke-width="4" stroke-linecap="round" stroke-linejoin="round" opacity="1" fill="none"></path><path d="M1073.3 764.3H1166.3" stroke="#243767" stroke-width="4" stroke-linecap="round" stroke-linejoin="round" opacity="1" fill="none"></path><path d="M1073.3 843H1166.3" stroke="#243767" stroke-width="4" stroke-linecap="round" stroke-linejoin="round" opacity="1" fill="none"></path></g><g><path d="M1309.2 868.6C1315.55 868.6 1320.7 863.45 1320.7 857.1 1320.7 850.75 1315.55 845.6 1309.2 845.6 1302.85 845.6 1297.7 850.75 1297.7 857.1 1297.7 863.45 1302.85 868.6 1309.2 868.6Z" fill="#243767" opacity="1" stroke-width="4" stroke="none"></path></g><g><path d="M1319.94 651.01L1274.4 482.34 1171.71 510.07 1147.82 551.63 1184.53 687.58 1319.94 651.01Z" fill="#6c98c7" opacity="1" stroke-width="4" stroke="none"></path><path d="M1175.24 550.54L1171.71 510.07 1147.82 551.63 1175.24 550.54Z" fill="#020202" opacity="0.2" stroke-width="4" stroke="none"></path><path d="M1180.54 542.79L1171.71 510.07 1147.82 551.63 1180.54 542.79Z" fill="#ffffff" opacity="1" stroke-width="4" stroke="none"></path><path d="M1186.34 564L1250.11 546.78" stroke="#f6f6f6" stroke-width="4" stroke-linecap="round" opacity="1" fill="none"></path><path d="M1198.99 610.81L1249.74 597.13" stroke="#f6f6f6" stroke-width="4" stroke-linecap="round" opacity="1" fill="none"></path><path d="M1192.69 587.38L1231.07 577.05" stroke="#f6f6f6" stroke-width="4" stroke-linecap="round" opacity="1" fill="none"></path></g><g><path d="M1293.75 511.7C1324.54 511.7 1349.5 486.74 1349.5 455.95 1349.5 425.16 1324.54 400.2 1293.75 400.2 1262.96 400.2 1238 425.16 1238 455.95 1238 486.74 1262.96 511.7 1293.75 511.7Z" fill="#243767" opacity="1" stroke-width="4" stroke="none"></path><path d="M1276.81 482.72C1276.77 482.66 1274.17 477.08 1271.53 466.9 1268.61 455.66 1269.2 448.49 1273.55 442.16 1275.06 439.95 1276.73 439.49 1277.87 439.49 1280.08 439.49 1282.09 441.34 1282.09 443.38 1282.09 445.24 1281.94 446.17 1281.76 447.25 1281.59 448.31 1281.4 449.51 1281.28 451.89 1281.13 455.04 1282.51 457.18 1283.69 458.42 1285.48 460.29 1288.06 461.41 1290.6 461.41 1290.6 461.41 1290.6 461.41 1290.6 461.41 1292.92 461.41 1294.93 460.47 1296.26 458.78 1298.28 456.22 1298.83 453.35 1297.85 450.47 1296.36 446.11 1291.26 441.94 1285.73 440.55 1283.12 439.9 1281.55 438.45 1281.53 436.68 1281.51 434.83 1283.2 433.12 1285.73 432.42 1286.83 432.12 1288.05 431.97 1289.36 431.97 1292.45 431.97 1295.03 432.82 1295.06 432.83 1295 432.74 1290.63 422.67 1295.05 420.66 1295.41 420.5 1295.8 420.41 1296.21 420.41 1299.88 420.41 1303.94 427.49 1303.98 427.56 1303.62 424.15 1304.39 422.51 1305.09 421.73 1305.61 421.15 1306.29 420.84 1307.06 420.84 1308.22 420.84 1309.43 421.59 1310.07 422.7 1312.04 426.14 1317.77 440.61 1317.77 454.33 1317.77 467.16 1315.36 482.56 1315.34 482.71L1315.34 482.72H1276.81V482.72Z" fill="#ffffff" opacity="1" stroke-width="4" stroke="none"></path><path d="M1303.98 427.56C1303.61 423.97 1304.42 422.37 1305.23 421.58L1306.44 431.2 1306.42 431.21 1303.98 427.56Z" fill="#a5a5a5" opacity="0.3" stroke-width="4" stroke="none"></path><path d="M1295.06 432.83C1295.04 432.78 1293.3 428.96 1293.08 425.25L1301.17 434.89 1295.06 432.83Z" fill="#a5a5a5" opacity="0.3" stroke-width="4" stroke="none"></path><path d="M1295.18 432.85C1299.65 434.85 1305.19 437.7 1308.03 442.97" stroke="#a5a5a5" stroke-width="4" stroke-linecap="round" stroke-linejoin="round" opacity="1" fill="none"></path><path d="M1303.87 427.37L1310.36 439.65" stroke="#a5a5a5" stroke-width="4" stroke-linecap="round" stroke-linejoin="round" opacity="1" fill="none"></path></g><g><path d="M458.23 1070.25C442.08 1070.25 428.97 1057.14 428.97 1040.98V955.9C428.97 955.82 428.97 955.82 440.76 955.85H487.5C487.58 955.82 487.58 955.82 487.58 955.9V1040.9C487.58 1057.14 474.39 1070.25 458.23 1070.25Z" fill="#243767" opacity="1" stroke-width="4" stroke="none"></path><path d="M448.17 1068.3H468.21C468.3 1068.3 468.3 1068.3 468.3 1068.39V1081.24C468.3 1081.33 468.3 1081.33 468.21 1081.33H448.17C448.09 1081.33 448.09 1081.33 448.09 1081.24L448.17 1068.3C448.09 1068.3 448.09 1068.3 448.17 1068.3Z" fill="#000000" opacity="1" stroke-width="4" stroke="none"></path><path d="M468.3 995.82H448.09V1034.9H468.3V995.82Z" fill="#5e74ad" opacity="1" stroke-width="4" stroke="none"></path><path d="M487.5 955.82C487.58 955.82 487.58 955.9 487.58 955.9 486.9 957.43 479.21 974.43 458.4 974.43 437.6 974.43 429.92 958.53 428.97 955.9 428.97 955.82 428.97 955.82 429.06 955.82H487.5Z" fill="#000000" opacity="1" stroke-width="4" stroke="none"></path></g><g><path d="M477.68 797.02C506.67 797.02 530.17 773.52 530.17 744.52 530.17 715.53 506.67 692.03 477.68 692.03 448.69 692.03 425.18 715.53 425.18 744.52 425.18 773.52 448.69 797.02 477.68 797.02Z" fill="#000000" opacity="0.2" stroke-width="4" stroke="none"></path><path d="M478.3 781.29C510.41 781.29 536.44 755.25 536.44 723.14 536.44 691.03 510.41 665 478.3 665 446.19 665 420.15 691.03 420.15 723.14 420.15 755.25 446.19 781.29 478.3 781.29Z" fill="#264c9a" opacity="1" stroke-width="4" stroke="none"></path><path d="M481.44 701.46L502.62 722.64 481.44 743.82" stroke="#000000" stroke-width="4" stroke-linecap="round" stroke-linejoin="round" opacity="1" fill="none"></path><path d="M501.62 722.64H453.47" stroke="#000000" stroke-width="4" stroke-linecap="round" stroke-linejoin="round" opacity="1" fill="none"></path></g><g><path d="M916.48 893.92C909.95 857.34 913.06 819.11 914.71 781.2 916.89 729.6 916.17 678.52 884.36 632.32 884.36 632.32 871.3 632.32 856.18 632.32 856.18 632.21 856.18 632.21 856.18 632.21L819.3 624.03 769.05 632.42C769.05 632.42 686.27 705.15 616.44 887.49 600.69 928.73 587.53 963.12 576.55 991.51L617.27 1023.73 673.42 1031.09C691.76 978.56 693 953.18 706.06 927.07 716 907.28 772.05 825.54 806.86 773.01 807.59 812.28 809.87 857.55 814.94 905.52 818.47 938.98 826.96 978.15 833.07 1013.48L888.4 1027.26 934.09 1013.79C933.16 956.91 922.07 919.3 916.48 893.92Z" fill="#243767" opacity="1" stroke-width="4" stroke="none"></path><path d="M862.29 317.98C845.2 309.48 831.62 309.9 821.06 314.15 807.9 318.5 797.54 325.85 792.15 337.87 788.52 345.95 785.93 354.45 783.76 360.15 783.55 360.67 783.14 360.98 782.62 361.08 780.24 361.29 773.71 362.22 772.78 365.22 771.64 368.85 775.16 373.82 776.71 375.69 777.13 376.21 777.23 376.83 776.92 377.35 770.29 392.58 768.94 402.62 772.26 411.85 775.06 419.72 783.14 429.46 805.93 428.22L804.58 434.33 807.38 439.09 875.45 440.03 880.32 434.22 883.94 417.23C883.94 417.23 886.85 379.73 887.78 372.89 890.26 353.93 890.99 332.38 862.29 317.98Z" fill="#935757" opacity="1" stroke-width="4" stroke="none"></path><path d="M805.93 428.32L803.96 437.33C803.96 437.44 804.07 437.54 804.07 437.44L827.48 423.35C827.58 423.24 827.48 423.14 827.38 423.14 816.81 427.39 806.97 428.11 805.93 428.32 805.93 428.22 805.93 428.22 805.93 428.32Z" fill="#0d0d0d" opacity="0.3" stroke-width="4" stroke="none"></path><path d="M833.07 1105.17C830.59 1107.96 827.79 1110.55 824.99 1112.73 805.83 1127.86 792.36 1127.44 790.49 1156.35L910.36 1152.62C910.36 1152.62 923.52 1142.98 928.39 1105.58 930.15 1091.7 931.71 1074.91 932.85 1055.64 932.85 1055.64 932.85 1055.54 932.74 1055.54L883.63 1043.31 839.39 1055.54 839.29 1055.64C841.57 1078.75 840.64 1096.88 833.07 1105.17Z" fill="#935757" opacity="1" stroke-width="4" stroke="none"></path><path d="M933.99 1013.79L833.18 1013.48C833.07 1013.48 833.07 1013.58 833.07 1013.58 835.66 1028.4 838.05 1042.8 839.29 1055.44 839.29 1055.54 839.29 1055.54 839.39 1055.54H932.74C932.85 1055.54 932.85 1055.54 932.85 1055.44 932.95 1053.16 933.05 1050.98 933.16 1048.6 933.99 1036.37 934.3 1024.77 934.09 1013.89 934.09 1013.79 934.09 1013.79 933.99 1013.79Z" fill="#efdcd7" opacity="1" stroke-width="4" stroke="none"></path><path d="M806.66 720.79L805.1 720.28C798.89 718.31 792.36 722.04 790.8 728.36L765.52 834.76C780.03 813.21 794.74 791.35 806.86 773.01 806.45 754.15 806.45 736.54 806.66 720.79Z" fill="#1b1b1d" opacity="0.3" stroke-width="4" stroke="none"></path><path d="M914.71 781.2C915.65 763.58 915.85 745.14 914.82 728.15 912.23 670.34 884.46 632.32 884.46 632.32L856.28 632.21 844.26 748.66 876.8 797.25C883.12 806.58 896.79 806.79 903.21 797.46L914.71 781.2Z" fill="#1b1b1d" opacity="0.3" stroke-width="4" stroke="none"></path><path d="M526.71 1098.74C522.67 1103.4 517.49 1107.55 512.17 1111.31 514.62 1122.19 474.8 1130.86 473.04 1156.97 473.04 1157.07 473.04 1157.07 473.14 1157.07L599.75 1154.27C600.47 1153.76 621.82 1139.56 640.67 1105.06 646.37 1094.6 652.27 1082.68 658.08 1069.84V1069.73L615.6 1035.23C615.6 1035.23 615.6 1035.23 615.5 1035.23L561.21 1030.16C561.21 1030.16 561.1 1030.16 561.1 1030.26 546.7 1066.21 536.13 1087.86 526.71 1098.74Z" fill="#935757" stroke-linejoin="round" opacity="1" stroke-width="4" stroke="none"></path><path d="M561.31 1030.05L658.08 1069.63C658.18 1069.63 658.18 1069.63 658.18 1069.53 662.22 1060.51 666.05 1050.98 669.78 1041.03 671.03 1037.51 672.27 1034.3 673.41 1031.09 673.41 1030.99 673.41 1030.99 673.31 1030.99L576.64 991.51C576.54 991.51 576.54 991.51 576.54 991.62 570.95 1005.91 565.97 1018.76 561.31 1029.95 561.21 1030.05 561.21 1030.05 561.31 1030.05Z" fill="#efdcd7" opacity="1" stroke-width="4" stroke="none"></path><path d="M570.53 1145.78H525.88C525.77 1145.78 525.77 1145.78 525.77 1145.68 525.77 1133.76 519.14 1119.26 512.2 1111.28H512.1C491.69 1125.16 465.37 1134.59 463.71 1160.59 463.71 1160.7 463.71 1160.7 463.82 1160.7L604.82 1160.8H604.93C605.65 1159.87 622.13 1139.46 640.77 1105.27 640.77 1105.17 640.77 1105.17 640.67 1105.06 601.72 1099.36 574.57 1125.16 570.53 1145.78 570.63 1145.78 570.63 1145.78 570.53 1145.78Z" fill="#243767" stroke-linejoin="round" opacity="1" stroke-width="4" stroke="none"></path><path d="M942.51 331.83C966.92 315.95 975.86 286.39 962.48 265.82 949.08 245.24 918.44 241.44 894.03 257.32 869.62 273.2 860.69 302.76 874.07 323.34 887.46 343.91 918.1 347.71 942.51 331.83Z" fill="#0b0c0c" opacity="1" stroke-width="4" stroke="none"></path><path d="M806.86 773.01L806.66 720.79" stroke="#1b1b1d" stroke-width="4" stroke-linecap="round" stroke-linejoin="round" opacity="1" fill="none"></path><path d="M526.1 412.67C513.56 408.01 504.75 408.43 511.18 419.1 512.52 421.38 513.97 423.45 515.63 425.42 515.94 425.83 515.63 426.35 515.11 426.25 501.02 423.76 461.96 416.09 461.76 429.56 461.76 429.98 461.45 430.29 461.03 430.29 453.57 431.43 450.98 438.89 453.68 443.24 453.78 443.45 453.78 443.65 453.57 443.86 445.8 449.14 451.81 456.5 452.95 457.85 453.05 457.95 453.16 458.16 453.05 458.36 452.85 460.02 452.33 468.41 464.76 474.11 477.92 480.22 529.2 494.94 529.2 494.94 529.2 494.94 537.8 504.78 557.59 523.01H557.69L592.09 502.6 607.11 462.92V462.82C578.52 441.58 548.06 420.86 526.1 412.67Z" fill="#935757" opacity="1" stroke-width="4" stroke="none"></path><path d="M865.09 313.01C833.07 299.33 805.62 306.38 792.15 337.87 793.71 339.53 800.65 341.6 809.45 338.29 809.76 338.18 810.18 338.39 810.07 338.8 809.76 342.02 809.76 353.52 824.79 354.03 825.1 354.03 825.3 354.35 825.2 354.66 824.48 357.04 822.71 366.36 832.45 373.72 832.66 373.82 832.87 373.82 832.97 373.72 835.87 371.96 859.49 358.18 869.54 370.71 879.8 385.74 859.39 401.9 853.9 405.73 853.28 406.15 853.28 407.18 853.9 407.6 869.13 419.62 883.84 417.13 883.84 417.13 891.4 376.72 909.33 338.39 865.09 313.01Z" fill="#0b0c0c" opacity="1" stroke-width="4" stroke="none"></path><path d="M797.75 368.44C799.52 368.44 800.96 367 800.96 365.22 800.96 363.44 799.52 362.01 797.75 362.01 795.97 362.01 794.53 363.44 794.53 365.22 794.53 367 795.97 368.44 797.75 368.44Z" fill="#000000" opacity="1" stroke-width="4" stroke="none"></path><path d="M780.65 1160.7H917.41C917.41 1160.7 917.51 1160.7 917.51 1160.59 917.93 1159.45 923.52 1141.84 928.39 1105.68 928.39 1105.58 928.29 1105.58 928.29 1105.58 902.49 1110.66 885.5 1129.82 882.39 1145.78 882.39 1145.78 882.39 1145.88 882.29 1145.88H837.63C837.53 1145.88 837.53 1145.88 837.53 1145.78 837.53 1134.69 831.73 1121.12 825.2 1112.83H825.1C806.14 1127.65 782.72 1131.17 780.75 1160.59 780.55 1160.59 780.55 1160.7 780.65 1160.7Z" fill="#243767" opacity="1" stroke-width="4" stroke="none"></path><path d="M877.62 446.55C877.83 445.83 878.76 441.06 880.32 434.43 880.32 434.33 880.32 434.33 880.21 434.33L804.69 434.43C804.69 434.43 804.58 434.43 804.58 434.54L803.86 437.64 802.1 445.52 801.99 445.62C801.06 445.52 793.29 444.9 783.24 445.72H783.14C781.38 448.63 779.51 454.12 779.41 454.53 779.41 454.53 779.41 454.53 779.41 454.63L812.35 562.28C812.35 562.38 812.46 562.38 812.56 562.28L896.69 451.63V451.53C896.58 451.32 896.17 450.18 895.96 449.66 895.96 449.66 895.96 449.56 895.86 449.56 889.95 447.9 883.74 446.97 877.73 446.66 877.73 446.66 877.62 446.66 877.62 446.55Z" fill="#ffffff" opacity="1" stroke-width="4" stroke="none"></path><path d="M901.87 1013.89C901.87 1013.89 894.93 940.33 884.77 876.2 866.64 760.89 868.71 632.73 868.71 632.73" stroke="#1b1b1d" stroke-width="4" stroke-linecap="round" stroke-linejoin="round" opacity="1" fill="none"></path><path d="M859.18 763.06C865.71 759.54 867.06 746.8 859.6 747.01L851.41 755.4 859.18 763.06Z" fill="#935757" opacity="1" stroke-width="4" stroke="none"></path><path d="M951.18 693.65L885.29 628.9 863.33 607.35H863.22L838.67 632.32 806.45 665.05 794.33 680.91V681.01L884.57 778.81H884.67L958.75 703.91V703.8L951.18 693.65Z" fill="#efdcd7" opacity="1" stroke-width="4" stroke="none"></path><path d="M806.45 665.16L791.74 680.08C787.18 684.74 787.18 692.3 791.84 696.86L878.76 782.33C879.49 783.06 880.73 783.06 881.46 782.33L903.11 760.27 806.45 665.16Z" fill="#f3f3f3" opacity="1" stroke-width="4" stroke="none"></path><path d="M942.48 480.22C930.88 464.99 914.4 454.32 896.07 449.56H895.96L816.6 546.12C816.5 546.22 816.5 546.12 816.39 546.12L783.34 445.62C783.34 445.62 783.24 445.62 783.24 445.52 770.5 446.66 752.88 450.18 736 459.19 708.75 473.8 662.44 503.54 660.68 504.68H660.57C659.74 504.05 649.38 495.25 634.15 483.33 626.28 477.12 617.16 470.17 607.42 462.92 607.32 462.92 607.32 462.92 607.32 462.92L557.9 523.01C557.9 523.12 557.9 523.12 557.9 523.12 627.01 588.91 651.97 601.44 711.55 572.74 722.94 567.25 735.69 560.21 750.29 551.82 750.4 551.82 750.4 551.82 750.4 551.92 751.23 555.44 768.43 629.83 769.05 632.32 769.05 632.32 769.05 632.32 769.15 632.42 770.91 632.42 807.28 632.42 838.77 632.32L863.33 607.35C863.43 607.35 863.43 607.35 863.43 607.35L885.39 628.9 902.08 570.98 921.97 606.73C922.07 607.04 922.07 607.35 921.76 607.45 918.44 609.83 896.27 626.31 871.2 645.78V645.89L880.01 688.78 910.57 704.42H910.67C943.31 688.26 981.85 663.5 991.8 632.83 1003.3 596.57 968.07 511.31 942.48 480.22Z" fill="#e7eff9" opacity="1" stroke-width="4" stroke="none"></path><path d="M863.22 607.45C863.33 607.45 863.33 607.45 863.33 607.45L885.29 629 901.97 571.09V570.98L889.95 550.88C889.95 550.78 889.85 550.78 889.75 550.88L819.4 632.32C819.3 632.42 819.4 632.52 819.5 632.52H838.67L863.22 607.45Z" fill="#b1b1b1" opacity="0.3" stroke-width="4" stroke="none"></path><path d="M799.3 709.71C800.34 715.1 807.8 715.1 807.8 715.1 804.58 719.34 802.41 722.56 802.41 722.56 797.02 733.23 808.83 738.61 808.83 738.61 809.87 751.46 821.68 750.32 821.68 750.32 827.07 764.2 835.56 760.99 835.56 760.99 841.98 774.88 859.29 763.06 859.29 763.06L855.04 758.4C853.59 756.74 853.59 754.26 855.04 752.6 857.42 749.91 861.88 745.56 869.75 739.65 879.28 732.71 886.95 723.59 892.13 712.92 897.41 710.64 904.15 707.43 910.26 704.42 910.36 704.42 910.36 704.32 910.26 704.32L870.99 645.89C870.99 645.89 870.89 645.78 870.89 645.89 836.91 672.31 798.16 703.8 799.3 709.71Z" fill="#935757" opacity="1" stroke-width="4" stroke="none"></path><path d="M880.32 783.99L878.87 782.65C874.62 778.4 874.52 771.56 878.76 767.31L951.18 693.65 960.2 702.56 967.45 709.71C967.76 710.02 967.76 710.64 967.45 710.95L895.65 783.99C891.51 788.14 884.77 788.24 880.32 783.99Z" fill="#ffffff" opacity="1" stroke-width="4" stroke="none"></path><path d="M648.87 512.55L660.47 504.78C660.57 504.78 660.57 504.68 660.47 504.57 659.33 503.64 649.07 494.94 634.47 483.54 634.36 483.44 634.26 483.54 634.26 483.64L648.66 512.45C648.76 512.65 648.76 512.65 648.87 512.55Z" fill="#b1b1b1" opacity="0.3" stroke-width="4" stroke="none"></path><path d="M785.42 385.74C786.76 387.19 792.46 389.47 796.09 385.63" stroke="#0d0d0d" stroke-width="4" stroke-linecap="round" stroke-linejoin="round" opacity="1" fill="none"></path><path d="M805.93 428.22C811.52 427.8 822.4 425.31 827.48 423.14" stroke="#0d0d0d" stroke-width="4" stroke-linecap="round" stroke-linejoin="round" opacity="1" fill="none"></path><path d="M843.44 388.33L855.14 383.04" stroke="#0d0d0d" stroke-width="4" stroke-linecap="round" stroke-linejoin="round" opacity="1" fill="none"></path><path d="M453.15 458.05C453.15 458.05 505.36 466.76 510.65 467.9 510.65 467.9 536.45 462.51 558.72 465.72" stroke="#0d0d0d" stroke-width="4" stroke-linecap="round" stroke-linejoin="round" opacity="1" fill="none"></path><path d="M453.47 443.55L515.01 452.98" stroke="#0d0d0d" stroke-width="4" stroke-linecap="round" stroke-linejoin="round" opacity="1" fill="none"></path><path d="M461.64 429.87L520.28 439.09" stroke="#0d0d0d" stroke-width="4" stroke-linecap="round" stroke-linejoin="round" opacity="1" fill="none"></path><path d="M901.97 570.98L889.95 550.78" stroke="#b1b1b1" stroke-width="4" stroke-linecap="round" stroke-linejoin="round" opacity="1" fill="none"></path><path d="M807.8 715.1C812.66 709.92 817.64 706.29 817.64 706.29" stroke="#0d0d0d" stroke-width="4" stroke-linecap="round" stroke-linejoin="round" opacity="1" fill="none"></path><path d="M808.83 738.61C809.87 733.33 811.42 727.94 819.81 720.17" stroke="#0d0d0d" stroke-width="4" stroke-linecap="round" stroke-linejoin="round" opacity="1" fill="none"></path><path d="M821.68 750.32C822.2 742.03 823.65 738.51 830.69 731.26" stroke="#0d0d0d" stroke-width="4" stroke-linecap="round" stroke-linejoin="round" opacity="1" fill="none"></path><path d="M835.56 760.99C835.66 750.74 837.22 748.15 842.81 742.45" stroke="#0d0d0d" stroke-width="4" stroke-linecap="round" stroke-linejoin="round" opacity="1" fill="none"></path><path d="M648.87 512.55L660.57 504.78" stroke="#b1b1b1" stroke-width="4" stroke-linecap="round" stroke-linejoin="round" opacity="1" fill="none"></path><path d="M711.86 572.64C724.7 566.73 748.95 552.54 750.29 551.82 750.29 551.82 750.4 551.71 750.29 551.71L744.6 527.88C744.6 527.78 744.49 527.78 744.39 527.88L711.75 572.54C711.75 572.64 711.86 572.74 711.86 572.64Z" fill="#b1b1b1" opacity="0.3" stroke-width="4" stroke="none"></path><path d="M750.29 551.82L744.7 527.88" stroke="#b1b1b1" stroke-width="4" stroke-linecap="round" stroke-linejoin="round" opacity="1" fill="none"></path></g><g><path d="M264.35 876.84L283.47 926.21 342.59 870.7 264.35 876.84Z" fill="#ffffff" opacity="1" stroke-width="4" stroke="none"></path></g></svg>