<svg xmlns="http://www.w3.org/2000/svg" height="1225" width="1634" version="1.1" xmlns:xlink="http://www.w3.org/1999/xlink" xmlns:svgjs="http://svgjs.com/svgjs"><rect fill="#ecf5fd" width="1634" height="1225"></rect><g><path d="M1137.78 809.14L1186.25 844.16 1185.22 719.87 1298.59 793.74 1253.3 693.35 1359.95 674.11" stroke="#243767" stroke-width="4" stroke-linecap="round" stroke-linejoin="round" opacity="1" fill="none"></path></g><g><path d="M358.81 499.93L291.69 483.84" stroke="#243767" stroke-width="4" stroke-linecap="round" stroke-linejoin="round" opacity="1" fill="none"></path><path d="M422.66 567.1L322.58 598.11" stroke="#243767" stroke-width="4" stroke-linecap="round" stroke-linejoin="round" opacity="1" fill="none"></path><path d="M439.54 632.07L403.8 673.47" stroke="#243767" stroke-width="4" stroke-linecap="round" stroke-linejoin="round" opacity="1" fill="none"></path></g><g><path d="M304.77 759.88H445.9C466.31 759.88 482.84 776.41 482.84 796.83V987.74C482.84 1008.15 466.31 1024.68 445.9 1024.68H304.77C284.36 1024.68 267.83 1008.15 267.83 987.74V796.83C267.83 776.41 284.36 759.88 304.77 759.88Z" fill="#264c9a" opacity="1" stroke-width="4" stroke="none"></path><path d="M289.16 1063.2C300.33 1063.2 309.39 1054.14 309.39 1042.97 309.39 1031.79 300.33 1022.74 289.16 1022.74 277.99 1022.74 268.94 1031.79 268.94 1042.97 268.94 1054.14 277.99 1063.2 289.16 1063.2Z" fill="#243767" opacity="1" stroke-width="4" stroke="none"></path><path d="M289.16 1048.6C292.27 1048.6 294.8 1046.08 294.8 1042.97 294.8 1039.86 292.27 1037.33 289.16 1037.33 286.05 1037.33 283.53 1039.86 283.53 1042.97 283.53 1046.08 286.05 1048.6 289.16 1048.6Z" fill="#264c9a" opacity="1" stroke-width="4" stroke="none"></path><path d="M483 1049.33C486.54 1038.74 480.8 1027.29 470.21 1023.75 459.62 1020.22 448.16 1025.95 444.62 1036.54 441.09 1047.14 446.82 1058.6 457.42 1062.12 468.02 1065.66 479.47 1059.94 483 1049.33Z" fill="#243767" opacity="1" stroke-width="4" stroke="none"></path><path d="M463.82 1048.6C466.93 1048.6 469.45 1046.08 469.45 1042.97 469.45 1039.86 466.93 1037.33 463.82 1037.33 460.71 1037.33 458.18 1039.86 458.18 1042.97 458.18 1046.08 460.71 1048.6 463.82 1048.6Z" fill="#264c9a" opacity="1" stroke-width="4" stroke="none"></path><path d="M309.76 783.34H440.91C451.07 783.34 459.38 791.65 459.38 801.81V855.66H291.29V801.81C291.29 791.65 299.6 783.34 309.76 783.34Z" fill="#d6e2ff" opacity="1" stroke-width="4" stroke="none"></path><path d="M459.38 855.66H291.29V927.98H459.38V855.66Z" fill="#d6e2ff" opacity="1" stroke-width="4" stroke="none"></path><path d="M291.29 855.66H459.38V871.18L291.29 861.02V855.66Z" fill="#909192" opacity="0.3" stroke-width="4" stroke="none"></path><path d="M293.13 927.98H459.38V981.83C459.38 991.99 451.07 1000.3 440.91 1000.3H309.76C299.6 1000.3 291.29 991.99 291.29 981.83V929.83C291.29 928.81 292.12 927.98 293.13 927.98Z" fill="#d6e2ff" opacity="1" stroke-width="4" stroke="none"></path><path d="M393.16 783.34C393.35 793.22 385.59 801.35 375.71 801.63 365.82 801.91 357.7 794.06 357.42 784.17 357.42 783.9 357.42 783.62 357.42 783.34H393.16Z" fill="#243767" opacity="1" stroke-width="4" stroke="none"></path><path d="M291.29 927.98H459.38V943.5L291.29 933.24V927.98Z" fill="#121315" opacity="0.3" stroke-width="4" stroke="none"></path><path d="M393.16 855.66C393.35 865.54 385.59 873.67 375.71 873.95 365.82 874.23 357.7 866.37 357.42 856.49 357.42 856.21 357.42 855.94 357.42 855.66H393.16Z" fill="#243767" opacity="1" stroke-width="4" stroke="none"></path><path d="M393.16 927.98C393.35 937.86 385.59 945.99 375.71 946.27 365.82 946.54 357.7 938.69 357.42 928.81 357.42 928.53 357.42 928.26 357.42 927.98H393.16Z" fill="#243767" opacity="1" stroke-width="4" stroke="none"></path><path d="M458.65 927.98H291.47" stroke="#0b0c0c" stroke-width="4" stroke-linecap="round" stroke-linejoin="round" opacity="1" fill="none"></path><path d="M458.65 855.66H291.47" stroke="#0b0c0c" stroke-width="4" stroke-linecap="round" stroke-linejoin="round" opacity="1" fill="none"></path></g><g><path d="M1279.2 437.29H1324.75L1329.57 391.74H1284.02L1279.2 437.29Z" fill="#6c98c7" opacity="1" stroke-width="4" stroke="none"></path><path d="M1228.98 346.47H1274.53L1279.34 300.92H1233.8L1228.98 346.47Z" fill="#6c98c7" opacity="1" stroke-width="4" stroke="none"></path><path d="M1149.86 466.18H1195.4L1200.22 420.63H1154.67L1149.86 466.18Z" fill="#264c9a" opacity="1" stroke-width="4" stroke="none"></path><path d="M1008.13 318.26H1053.67L1058.49 272.71H1012.94L1008.13 318.26Z" fill="#ffffff" opacity="1" stroke-width="4" stroke="none"></path><path d="M976.48 417.33H1022.02L1026.84 371.79H981.29L976.48 417.33Z" fill="#ffffff" opacity="1" stroke-width="4" stroke="none"></path><path d="M1140.91 288.67H1186.46L1191.28 243.13H1145.73L1140.91 288.67Z" fill="#264c9a" opacity="1" stroke-width="4" stroke="none"></path></g><g><path d="M960.67 207.14C932.99 247.07 878.66 328.06 792.97 360.02 707.29 391.99 677.67 353.18 708.52 313.15 741.2 270.76 842.91 234.41 910.22 231.44 977.52 228.48 1006.42 246.87 1004.27 270.46 1001.52 301.4 931.97 371.15 828.21 366.66 724.45 362.17 804.82 235.33 846.8 204.48 885.6 175.99 915.73 177.83 919.82 209.18 924.51 244.72 895.1 357.47 788.79 414.66" stroke="#243767" stroke-width="4" stroke-linecap="round" stroke-linejoin="round" opacity="1" fill="none"></path></g><g><path d="M562.84 367.53C595.62 367.53 622.2 340.96 622.2 308.17 622.2 275.39 595.62 248.81 562.84 248.81 530.06 248.81 503.48 275.39 503.48 308.17 503.48 340.96 530.06 367.53 562.84 367.53Z" fill="#264c9a" opacity="1" stroke-width="4" stroke="none"></path><path d="M592.26 313.33C582.72 322.88 567.22 322.88 557.59 313.33 547.96 303.79 548.05 288.3 557.59 278.67 558.11 278.14 558.11 277.26 557.59 276.65 557.24 276.3 556.8 276.13 556.36 276.21 538.5 279.45 526.6 296.61 529.84 314.47 533.08 332.33 550.24 344.24 568.09 341 581.66 338.55 592.26 327.95 594.62 314.38 594.71 313.6 594.27 312.9 593.48 312.81 593.13 312.81 592.61 312.98 592.26 313.33Z" fill="#ffffff" opacity="1" stroke-width="4" stroke="none"></path></g><g><path d="M841.97 838.06H869.45V979.16H841.97V838.06Z" fill="#243767" opacity="1" stroke-width="4" stroke="none"></path><path d="M869.45 876.8V863.7H841.97V883.18L869.45 876.8Z" fill="#212f53" opacity="0.2" stroke-width="4" stroke="none"></path><path d="M823.79 842.38H886.55V869.87H823.79V842.38Z" fill="#6c98c7" opacity="1" stroke-width="4" stroke="none"></path><path d="M886.55 842.38H823.9V863.05L886.55 849.96V842.38Z" fill="#000000" opacity="0.2" stroke-width="4" stroke="none"></path><path d="M824.33 969.42H887.09V996.91H824.33V969.42Z" fill="#6c98c7" opacity="1" stroke-width="4" stroke="none"></path><path d="M995.52 829.83L1025.71 658.75C1029.38 637.98 1015.53 621.2 994.76 621.2H865.34C844.56 621.2 824.87 637.98 821.19 658.75L791 829.83C790.13 833.73 792.51 837.62 796.41 838.49 797.06 838.6 797.71 838.71 798.36 838.71L985.13 838.71C990.32 838.6 994.65 834.92 995.52 829.83Z" fill="#6c98c7" opacity="1" stroke-width="4" stroke="none"></path><path d="M699.35 828.43V828.86C699.35 836.32 705.41 842.38 712.87 842.38H981.77C989.24 842.38 995.3 836.32 995.3 828.86V828.43C995.3 820.96 989.24 814.9 981.77 814.9H712.87C705.41 814.9 699.35 820.96 699.35 828.43Z" fill="#243767" opacity="1" stroke-width="4" stroke="none"></path><path d="M940.98 1036.51V1012.17C940.98 1003.72 934.16 996.91 925.72 996.91L785.7 996.91C777.26 996.91 770.44 1003.72 770.44 1012.17V1036.51" stroke="#000000" stroke-width="4" stroke-linecap="round" stroke-linejoin="round" opacity="1" fill="none"></path><path d="M855.71 996.91V1016.71" stroke="#000000" stroke-width="4" stroke-linecap="round" stroke-linejoin="round" opacity="1" fill="none"></path><path d="M940.65 1062.92C927.57 1062.92 916.96 1052.31 916.96 1039.22 916.96 1026.14 927.57 1015.52 940.65 1015.52 953.75 1015.52 964.35 1026.14 964.35 1039.22 964.35 1052.31 953.75 1062.92 940.65 1062.92Z" fill="#243767" opacity="1" stroke-width="4" stroke="none"></path><path d="M940.65 1045.82C937.01 1045.82 934.05 1042.86 934.05 1039.22 934.05 1035.57 937.01 1032.62 940.65 1032.62 944.3 1032.62 947.25 1035.57 947.25 1039.22 947.25 1042.86 944.3 1045.82 940.65 1045.82Z" fill="#b4c4ed" opacity="1" stroke-width="4" stroke="none"></path><path d="M768.02 1062.76C754.99 1061.48 745.48 1049.88 746.76 1036.85 748.05 1023.83 759.66 1014.31 772.68 1015.61 785.71 1016.89 795.22 1028.49 793.93 1041.52 792.64 1054.54 781.03 1064.05 768.02 1062.76Z" fill="#243767" opacity="1" stroke-width="4" stroke="none"></path><path d="M770.33 1045.82C766.68 1045.82 763.73 1042.86 763.73 1039.22 763.73 1035.57 766.68 1032.62 770.33 1032.62 773.98 1032.62 776.93 1035.57 776.93 1039.22 776.93 1042.86 773.98 1045.82 770.33 1045.82Z" fill="#b4c4ed" opacity="1" stroke-width="4" stroke="none"></path><path d="M856.14 1062.92C843.06 1062.92 832.44 1052.31 832.44 1039.22 832.44 1026.14 843.06 1015.52 856.14 1015.52 869.23 1015.52 879.84 1026.14 879.84 1039.22 879.84 1052.31 869.23 1062.92 856.14 1062.92Z" fill="#243767" opacity="1" stroke-width="4" stroke="none"></path><path d="M856.14 1045.82C852.49 1045.82 849.54 1042.86 849.54 1039.22 849.54 1035.57 852.49 1032.62 856.14 1032.62 859.79 1032.62 862.74 1035.57 862.74 1039.22 862.74 1042.86 859.79 1045.82 856.14 1045.82Z" fill="#b4c4ed" opacity="1" stroke-width="4" stroke="none"></path><path d="M869.45 969.42H841.97" stroke="#000000" stroke-width="4" stroke-linecap="round" stroke-linejoin="round" opacity="1" fill="none"></path><path d="M868.91 872.14H842.62" stroke="#000000" stroke-width="4" stroke-linecap="round" stroke-linejoin="round" opacity="1" fill="none"></path><path d="M886.55 843.57H824.98" stroke="#212f53" stroke-width="4" stroke-linecap="round" stroke-linejoin="round" opacity="1" fill="none"></path></g><g><path d="M682.14 375.29V375.19C689.44 367.32 704.9 352.06 705.19 351.39 706.24 350.43 711.91 297.34 723.04 298.78 727.46 298.78 729.47 302.42 730.15 304.15 730.34 304.54 730.82 304.63 731.11 304.44 733.31 303 740.42 298.97 750.88 298.97 763.94 299.16 770.47 301.94 771.14 306.74 771.14 306.74 771.14 306.84 771.23 306.84 772.67 307.03 779.87 309.72 778.05 314.42 778.05 314.52 778.05 314.52 778.15 314.52 779.3 314.9 786.59 317.98 784 322.1V322.2C784.77 322.58 790.63 326.23 788.71 330.07 784.39 337.66 757.41 336.03 753.86 344.67 752.42 347.83 752.61 351.77 752.8 356.67 754.91 379.61 745.12 393.24 730.43 415.13 730.43 415.13 730.34 415.23 730.34 415.13 728.71 414.55 697.31 403.03 696.16 402.65 696.16 402.65 696.16 402.65 696.07 402.65L682.14 375.29Z" fill="#a56250" opacity="1" stroke-width="4" stroke="none"></path><path d="M647.58 1006.69L643.84 979.81C644.9 968.67 642.88 961.86 638.66 946.11 638.66 946.02 637.98 940.35 637.89 939.49 637.89 939.39 637.89 939.39 637.98 939.39L732.83 939.2C732.83 939.2 732.93 939.2 732.93 939.3L736.39 946.21C738.5 966.66 739.36 987.3 738.88 1007.55L733.79 1017.63 733.7 1017.73 647.58 1006.69C647.58 1006.79 647.58 1006.79 647.58 1006.69Z" fill="#a56250" opacity="1" stroke-width="4" stroke="none"></path><path d="M643.84 979.91C643.84 979.81 643.84 979.81 643.84 979.91L680.03 979.81C686.75 979.81 691.75 985.95 690.59 992.39L687.81 1007.36C687.81 1007.46 687.81 1007.46 687.9 1007.46H738.79C738.88 1007.46 738.88 1007.46 738.88 1007.55 738.59 1019.07 737.63 1030.59 736.48 1041.92 736.48 1041.92 736.48 1042.02 736.39 1042.02L617.15 1052.77C617.15 1052.77 617.15 1052.77 617.06 1052.77L597.38 1042.11C597.28 1042.11 597.28 1042.02 597.38 1042.02 610.53 1023.3 640.67 1018.4 643.84 979.91Z" fill="#6c98c7" opacity="1" stroke-width="4" stroke="none"></path><path d="M736.48 1042.21C735.71 1049.31 734.75 1056.42 733.6 1063.43 733.6 1063.43 733.6 1063.52 733.51 1063.52H635.1 590.94C590.85 1063.52 590.85 1063.52 590.85 1063.43 590.85 1054.4 593.34 1047.68 597.28 1042.11H597.38L736.48 1042.21Z" fill="#ffffff" opacity="1" stroke-width="4" stroke="none"></path><path d="M618.11 745.47C649.79 707.84 732.45 683.07 774.02 672.61 789.09 668.86 798.02 667.04 798.21 667.04H858.4 858.5C859.36 667.9 881.44 690.37 888.16 728.09 896.23 774.56 860.42 815.94 813.09 815.94H705.47C705.38 815.94 705.38 816.03 705.38 816.03 720.93 856.26 731.59 901.47 736.29 946.02 736.29 946.11 736.29 946.11 736.19 946.11H638.75C638.75 946.11 638.66 946.11 638.66 946.02 623.49 891.78 583.74 786.37 618.11 745.47Z" fill="#264c9a" opacity="1" stroke-width="4" stroke="none"></path><path d="M707.68 754.88C666.3 757.95 647.2 773.89 659.3 834.46 676.1 918.46 706.91 954.85 705.67 981.54 703.65 1023.59 657.95 1029.92 657.95 1063.52L775.17 1058.24C775.27 1058.24 775.17 1058.34 775.17 1058.24 775.27 1052.39 782.66 749.21 707.68 754.88Z" fill="#000000" opacity="0.3" stroke-width="4" stroke="none"></path><path d="M728.71 1010.82L723.33 979.81C723.43 968.58 721.7 960.23 717.47 946.11 717.47 945.92 717.38 939.68 717.38 938.91 717.38 938.82 717.38 938.82 717.47 938.82L814.15 937.57C814.15 937.57 814.15 937.57 814.24 937.57L827.11 946.02C827.11 946.02 827.11 946.02 827.11 946.11 830.75 965.51 833.44 985.95 834.98 1007.36L833.83 1018.69C833.83 1018.79 833.73 1018.79 833.73 1018.79L728.71 1010.82C728.71 1010.91 728.71 1010.91 728.71 1010.82Z" fill="#a56250" opacity="1" stroke-width="4" stroke="none"></path><path d="M686.37 1041.92C697.79 1023.01 723.14 1018.21 723.33 979.91 723.33 979.81 723.33 979.81 723.43 979.81H758.66C765.28 979.81 770.18 985.76 769.12 992.1L766.63 1007.36C766.63 1007.46 766.63 1007.46 766.72 1007.46H834.88C834.98 1007.46 834.98 1007.46 834.98 1007.55 835.75 1018.59 836.23 1030.21 836.32 1041.92 836.32 1041.92 836.32 1042.02 836.23 1042.02 834.59 1042.5 801.67 1050.75 767.11 1050.75 729.09 1050.75 689.06 1042.5 686.37 1041.92 686.27 1041.92 686.37 1042.02 686.37 1041.92Z" fill="#6c98c7" opacity="1" stroke-width="4" stroke="none"></path><path d="M685.79 745.47C728.99 694.21 865.03 667.23 865.89 667.04L952.2 670.11C952.2 670.11 952.29 670.11 952.29 670.21 952.58 670.97 955.36 680.29 958.24 693.34 960.26 702.65 962.28 713.79 963.24 725.12 967.84 778.3 928.1 816.03 880.87 816.03H783.14C783.04 816.03 783.04 816.13 783.04 816.13 801.95 853.38 817.6 896.77 827.11 946.02 827.11 946.11 827.11 946.11 827.01 946.11H717.57C717.57 946.11 717.47 946.11 717.47 946.02 700 888.99 650.56 787.33 685.79 745.47Z" fill="#264c9a" opacity="1" stroke-width="4" stroke="none"></path><path d="M764.23 783.3C759.23 764.96 836.03 815.94 855.04 815.94 830.47 815.94 784.77 815.94 783.04 815.94H782.95C782.47 814.88 774.5 799.14 764.23 783.3Z" fill="#000000" opacity="0.3" stroke-width="4" stroke="none"></path><path d="M836.32 1042.11C836.42 1049.12 836.32 1056.23 836.13 1063.43 836.13 1063.52 836.13 1063.52 836.03 1063.52H776.32 680.9C680.8 1063.52 680.8 1063.52 680.8 1063.43 680.8 1054.31 682.91 1047.59 686.27 1042.11H686.37 836.32C836.32 1042.02 836.32 1042.02 836.32 1042.11Z" fill="#ffffff" opacity="1" stroke-width="4" stroke="none"></path><path d="M1025.45 610.01C1014.69 578.91 948.07 499.71 911.3 479.35V479.26C887.49 467.83 859.36 466.78 858.69 466.78L808.29 467.55 788.8 471C776.51 468.99 736.29 465.15 713.83 463.23 705.57 462.46 699.71 461.98 698.66 461.98 698.56 461.98 698.56 461.88 698.56 461.79 700 459.77 716.71 436.15 730.24 415.32V415.23L682.14 375.29H682.05C661.02 396.6 638.37 419.93 628.77 431.74 619.07 443.64 614.46 460.06 616.38 475.32 618.59 492.99 629.25 509.4 647.2 522.75 655.26 528.7 664 533.79 672.93 538.11 708.83 555.48 746.95 560.28 748.77 560.48 748.77 560.48 748.87 560.48 748.87 560.57L774.02 672.51 774.11 672.61 952.96 672.7C953.06 672.7 953.06 672.61 953.06 672.61L952.1 668.29C960.07 668.86 967.84 669.15 974.95 669.15 998.85 669.15 1015.08 665.69 1020.65 659.36 1026.5 652.83 1034.95 637.57 1025.45 610.01Z" fill="#ffffff" opacity="1" stroke-width="4" stroke="none"></path><path d="M746.37 946.21L638.66 946.11" stroke="#000000" stroke-width="4" stroke-linecap="round" stroke-linejoin="round" opacity="1" fill="none"></path><path d="M637.12 1003.04L651.33 1008.8" stroke="#191919" stroke-width="4" stroke-linecap="round" stroke-linejoin="round" opacity="1" fill="none"></path><path d="M628.38 1014.66L640 1024.26" stroke="#191919" stroke-width="4" stroke-linecap="round" stroke-linejoin="round" opacity="1" fill="none"></path><path d="M773.15 797.7L782.95 815.94" stroke="#000000" stroke-width="4" stroke-linecap="round" stroke-linejoin="round" opacity="1" fill="none"></path><path d="M719.49 1002.75L733.79 1008.8" stroke="#191919" stroke-width="4" stroke-linecap="round" stroke-linejoin="round" opacity="1" fill="none"></path><path d="M711.52 1015.81L722.47 1024.26" stroke="#191919" stroke-width="4" stroke-linecap="round" stroke-linejoin="round" opacity="1" fill="none"></path><path d="M788.9 462.65L788.99 455.64C788.99 455.55 788.9 455.55 788.9 455.55 787.27 455.93 769.22 459.58 757.51 448.73 743.01 434.04 752.61 405.34 751.55 385.18 751.27 380.19 751.36 375.29 751.84 370.97 755.01 341.11 776.51 336.22 812.23 336.79 853.89 338.23 856.87 360.03 858.12 375 858.5 387.87 858.4 412.73 858.21 432.79 858.02 449.21 858.4 459.39 858.4 460.15V460.25L851.11 466.49C851.11 466.49 851.11 466.49 851.01 466.49L789.09 462.75C788.99 462.75 788.9 462.75 788.9 462.65Z" fill="#a56250" opacity="1" stroke-width="4" stroke="none"></path><path d="M789.09 455.55C788.99 455.55 788.99 455.55 789.09 455.55L788.99 462.75V467.35C788.99 467.45 788.99 467.45 789.09 467.45L793.79 467.55H793.89L810.31 447.67C810.4 447.58 810.31 447.48 810.21 447.58 801.09 452.09 789.95 455.26 789.09 455.55Z" fill="#000000" opacity="0.3" stroke-width="4" stroke="none"></path><path d="M848.04 433.85C842.18 433.85 834.31 432.31 829.51 425.69V425.59C830.85 424.35 852.26 402.94 842.18 390.07 839.49 386.62 835.75 384.89 831.23 384.89 821.63 384.89 811.07 392.67 810.4 393.24H810.31C809.44 392.95 800.03 383.93 803.49 369.63 803.49 369.53 803.39 369.43 803.3 369.53 791.87 377.98 781.03 379.51 778.91 366.75 778.91 366.65 778.82 366.65 778.72 366.65 772.29 371.07 766.24 373.47 760.48 373.47 754.91 373.37 751.84 371.55 751.65 371.07 751.65 371.07 751.65 371.07 751.65 370.97 753.09 341.11 778.24 328.92 811.27 329.59 881.25 329.59 858.6 430.11 858.02 432.7 858.02 432.7 858.02 432.79 857.92 432.79 857.64 432.89 853.32 433.85 848.04 433.85Z" fill="#000000" opacity="1" stroke-width="4" stroke="none"></path><path d="M808.77 470.33L794.47 488.76C794.47 488.86 794.27 488.76 794.27 488.76L788.8 471 788.9 462.84C788.9 462.75 788.9 462.75 788.99 462.75L858.31 460.15C858.4 460.15 858.4 460.15 858.4 460.25L858.69 466.68V466.78L825.28 491.07H825.19L808.96 470.33C808.87 470.33 808.87 470.33 808.77 470.33Z" fill="#eaeaeb" opacity="1" stroke-width="4" stroke="none"></path><path d="M769.03 423C770.18 419.35 773.92 417.15 777.76 418.2" stroke="#000000" stroke-width="4" stroke-linecap="round" stroke-linejoin="round" opacity="1" fill="none"></path><path d="M770.56 400.44L770.27 403.13C770.08 404.95 770.85 406.68 772.29 407.83" stroke="#000000" stroke-width="4" stroke-linecap="round" stroke-linejoin="round" opacity="1" fill="none"></path><path d="M785.54 393.05C789.47 393.15 789.47 398.91 785.54 399 781.6 398.91 781.6 393.15 785.54 393.05Z" fill="#000000" opacity="1" stroke-width="4" stroke="none"></path><path d="M759.33 393.05C763.27 393.15 763.27 398.91 759.33 399 755.39 398.91 755.39 393.15 759.33 393.05Z" fill="#000000" opacity="1" stroke-width="4" stroke="none"></path><path d="M808.29 504.32C816.64 504.51 816.64 516.8 808.29 516.99 799.94 516.8 799.94 504.51 808.29 504.32Z" fill="#252525" opacity="1" stroke-width="4" stroke="none"></path><path d="M808.29 548.57C816.64 548.76 816.64 561.05 808.29 561.24 799.94 561.05 799.94 548.76 808.29 548.57Z" fill="#252525" opacity="1" stroke-width="4" stroke="none"></path><path d="M808.29 592.92C816.64 593.12 816.64 605.4 808.29 605.6 799.94 605.4 799.94 593.12 808.29 592.92Z" fill="#252525" opacity="1" stroke-width="4" stroke="none"></path><path d="M748.87 560.38L744.74 535.8" stroke="#252525" stroke-width="4" stroke-linecap="round" stroke-linejoin="round" opacity="1" fill="none"></path><path d="M698.66 461.88L685.02 480.22" stroke="#252525" stroke-width="4" stroke-linecap="round" stroke-linejoin="round" opacity="1" fill="none"></path><path d="M788.99 455.55C800.61 453.63 810.4 446.33 810.4 446.33" stroke="#000000" stroke-width="4" stroke-linecap="round" stroke-linejoin="round" opacity="1" fill="none"></path><path d="M820.67 407.55L829.41 400.73" stroke="#000000" stroke-width="4" stroke-linecap="round" stroke-linejoin="round" opacity="1" fill="none"></path><path d="M730.43 304.82C726.88 306.65 716.42 313.27 711.52 320.28" stroke="#000000" stroke-width="4" stroke-linecap="round" stroke-linejoin="round" opacity="1" fill="none"></path><path d="M770.95 306.84C764.13 305.88 756.45 304.92 749.63 305.88 740.9 307.13 732.16 312.7 732.16 312.7" stroke="#000000" stroke-width="4" stroke-linecap="round" stroke-linejoin="round" opacity="1" fill="none"></path><path d="M783.91 322.2C776.13 322.2 761.35 322.39 745.89 331.13" stroke="#000000" stroke-width="4" stroke-linecap="round" stroke-linejoin="round" opacity="1" fill="none"></path><path d="M778.05 314.52C773.25 314.52 755.49 311.74 739.07 321.43" stroke="#000000" stroke-width="4" stroke-linecap="round" stroke-linejoin="round" opacity="1" fill="none"></path><path d="M684.93 480.12L698.47 461.88C698.47 461.88 698.47 461.88 698.56 461.88 699.23 461.88 705.86 462.46 713.63 463.13 713.73 463.13 713.73 463.23 713.63 463.32L685.12 480.22C684.93 480.32 684.83 480.22 684.93 480.12Z" fill="#252525" opacity="0.3" stroke-width="4" stroke="none"></path><path d="M748.77 560.48C746.37 560.28 708.74 555.39 673.31 538.3 673.22 538.3 673.22 538.11 673.31 538.11 723.23 536.28 743.2 535.8 744.64 535.71 744.74 535.71 744.74 535.71 744.74 535.8L748.87 560.38 748.77 560.48Z" fill="#252525" opacity="0.3" stroke-width="4" stroke="none"></path><path d="M963.04 724.83C963.14 724.93 963.24 724.83 963.24 724.73 962.56 716.09 960.55 703.52 958.24 693.25 956.32 684.03 953.73 674.91 953.06 672.7 952.77 671.65 952.2 668.77 952.1 668.29 952.1 668.29 952.1 668.19 952 668.19 935.3 666.94 917.64 664.83 902.18 661.85 892.1 659.93 882.88 657.92 876.07 656.29 875.97 656.29 876.07 656.38 876.07 656.48L873.19 672.51C873.19 672.61 873.19 672.8 873.28 672.8H891.91C928 688.45 960.36 721.95 963.04 724.83Z" fill="#252525" opacity="0.3" stroke-width="4" stroke="none"></path><path d="M908.52 599.16C910.92 599.16 912.45 599.26 913.03 599.26 913.12 599.26 913.12 599.16 913.12 599.07 906.69 590.81 898.44 580.54 891.72 568.73 891.72 568.64 891.52 568.64 891.52 568.73L886.05 600.03C886.05 600.12 886.05 600.22 886.15 600.22 888.16 600.12 890.18 600.03 892 599.93 899.11 599.45 904.87 599.16 908.52 599.16Z" fill="#252525" opacity="0.3" stroke-width="4" stroke="none"></path><path d="M885.96 600.22C869.16 601.47 848.04 604.35 832.1 611.45 809.73 620.96 765.76 654.94 782.75 655.81 785.83 655.81 794.47 651.77 798.69 649.66 799.17 649.47 799.65 650.05 799.27 650.43 793.79 656.48 778.82 674.24 792.64 674.91 795.14 674.91 797.54 674.33 798.02 674.24 798.11 674.24 798.11 674.24 798.11 674.33 800.61 684.8 813.95 678.94 816.83 675.87 816.93 675.77 817.03 675.87 817.03 675.97 817.03 679.23 821.15 681.53 825.47 681.34 834.59 680.67 862.82 654.65 864.16 653.21H864.26C864.74 653.41 869.25 654.65 876.26 656.29 883.08 657.92 892.2 660.03 902.28 661.85 902.37 661.85 902.37 661.85 902.37 661.76 902.47 660.41 903.62 644.57 901.03 629.31 898.63 614.91 892.48 600.99 892.1 600.03 892.1 600.03 892.1 600.03 892 600.03 890.08 599.93 888.07 600.12 885.96 600.22Z" fill="#a56250" opacity="1" stroke-width="4" stroke="none"></path><path d="M891.72 568.83C899.11 580.64 904.58 588.51 913.32 599.26" stroke="#252525" stroke-width="4" stroke-linecap="round" stroke-linejoin="round" opacity="1" fill="none"></path><path d="M819.43 631.23C812.61 636.32 804.26 644.96 798.02 650.81" stroke="#000000" stroke-width="4" stroke-linecap="round" stroke-linejoin="round" opacity="1" fill="none"></path><path d="M832.96 639.01C832.96 639.01 805.89 665.6 798.11 674.33" stroke="#000000" stroke-width="4" stroke-linecap="round" stroke-linejoin="round" opacity="1" fill="none"></path><path d="M846.5 647.65L816.93 675.77" stroke="#000000" stroke-width="4" stroke-linecap="round" stroke-linejoin="round" opacity="1" fill="none"></path><path d="M686.46 1042.02C697.89 1023.01 723.14 1018.21 723.33 979.81 723.33 977.7 723.33 975.39 723.14 972.99 722.66 966.08 720.74 956.96 717.38 946.21 699.91 889.09 650.46 787.33 685.7 745.47 702.31 725.69 732.83 709.57 764.13 697.09" stroke="#000000" stroke-width="4" stroke-linecap="round" stroke-linejoin="round" opacity="1" fill="none"></path><path d="M827.11 946.21H717.47" stroke="#000000" stroke-width="4" stroke-linecap="round" stroke-linejoin="round" opacity="1" fill="none"></path><path d="M892 599.93C912.36 598.01 958.82 601.18 958.82 601.18" stroke="#252525" stroke-width="4" stroke-linecap="round" stroke-linejoin="round" opacity="1" fill="none"></path><path d="M902.28 661.66C921.48 666.08 952.1 668.29 952.1 668.29" stroke="#252525" stroke-width="4" stroke-linecap="round" stroke-linejoin="round" opacity="1" fill="none"></path></g><g><path d="M1142.26 689.04H1117.04V1063.51H1142.26V689.04Z" fill="#243767" opacity="1" stroke-width="4" stroke="none"></path><path d="M527.79 689.04H502.57V1063.51H527.79V689.04Z" fill="#243767" opacity="1" stroke-width="4" stroke="none"></path><path d="M471.76 675.04H1174.01C1175.67 675.03 1177.31 675.35 1178.85 675.98 1180.38 676.61 1181.77 677.54 1182.94 678.71 1184.11 679.89 1185.04 681.28 1185.67 682.81 1186.3 684.34 1186.62 685.99 1186.62 687.64 1186.62 689.3 1186.3 690.94 1185.67 692.48 1185.04 694.01 1184.11 695.4 1182.94 696.57 1181.77 697.75 1180.38 698.67 1178.85 699.3 1177.31 699.93 1175.67 700.26 1174.01 700.25H471.76C470.1 700.26 468.46 699.93 466.93 699.3 465.39 698.67 464 697.75 462.83 696.57 461.66 695.4 460.73 694.01 460.1 692.48 459.47 690.94 459.14 689.3 459.15 687.64 459.14 685.99 459.47 684.34 460.1 682.81 460.73 681.28 461.66 679.89 462.83 678.71 464 677.54 465.39 676.61 466.93 675.98 468.46 675.35 470.1 675.03 471.76 675.04Z" fill="#243767" opacity="1" stroke-width="4" stroke="none"></path></g><g><path d="M1246.83 849.05C1262.96 849.05 1276.12 862.2 1276.12 878.33V896.32H1217.54V878.33C1217.54 862.2 1230.59 849.05 1246.83 849.05Z" stroke="#4673e1" stroke-width="4" stroke-linecap="round" stroke-linejoin="round" opacity="1" fill="none"></path><path d="M1246.83 877.82C1291.43 877.82 1327.5 913.89 1327.5 958.49V1062.8H1166.15V958.49C1166.15 913.99 1202.23 877.82 1246.83 877.82Z" fill="#264c9a" opacity="1" stroke-width="4" stroke="none"></path><path d="M1327.5 991.89H1166.15V1062.8H1327.5V991.89Z" fill="#d6e2ff" opacity="1" stroke-width="4" stroke="none"></path><path d="M1166.15 991.89H1327.5V1021.8L1166.15 1006.79V991.89Z" fill="#4673e1" opacity="0.3" stroke-width="4" stroke="none"></path><path d="M1204.59 1028.69H1288.96" stroke="#4673e1" stroke-width="4" stroke-linecap="round" stroke-linejoin="round" opacity="1" fill="none"></path><path d="M1246.76 916.9L1221.98 941.68 1246.76 966.46 1271.54 941.68 1246.76 916.9Z" fill="#d6e2ff" opacity="1" stroke-width="4" stroke="none"></path></g><g><path d="M1089.79 648.94C1090.65 648.94 1091.31 648.28 1091.31 647.42V611.59C1091.31 610.74 1090.65 610.07 1089.79 610.07H1039.83C1029.5 610.07 1021.06 618.51 1021.06 628.84V630.08C1021.06 640.5 1029.5 648.94 1039.93 648.94H1089.79ZM1080.31 637.85H1039.93C1035.66 637.85 1032.15 634.34 1032.15 630.08V628.94C1032.15 624.67 1035.66 621.17 1039.93 621.17H1080.31V637.85Z" fill="#6c98c7" opacity="1" stroke-width="4" stroke="none"></path><path d="M1128.76 657.38L1136.91 586.66C1136.91 586.37 1136.53 586.18 1136.34 586.37 1133.02 590.35 1117.47 607.42 1092.45 608.08H1092.16C1074.34 608.08 1060.31 599.36 1048.36 586.28 1048.18 586.09 1047.8 586.18 1047.8 586.56L1055.85 657.38C1056.99 667.52 1065.52 675.11 1075.76 675.11H1108.94C1118.99 675.11 1127.62 667.52 1128.76 657.38Z" fill="#264c9a" opacity="1" stroke-width="4" stroke="none"></path><path d="M1072.73 585.61C1072.54 585.8 1052.73 586.09 1048.55 586.09 1048.18 586.09 1047.8 586.37 1047.89 586.75L1055.76 657.38C1056.9 667.52 1065.43 675.11 1075.67 675.11H1077.47L1072.73 585.61Z" fill="#2d2d2d" opacity="0.2" stroke-width="4" stroke="none"></path><path d="M1092.26 609.98C1119.47 609.98 1133.78 590.45 1136.53 586.37 1136.72 586.09 1136.53 585.61 1136.15 585.61H1048.46C1048.08 585.61 1047.8 586.09 1048.08 586.37 1057.84 601.16 1074.15 609.98 1091.97 609.98H1092.26Z" fill="#6c98c7" opacity="1" stroke-width="4" stroke="none"></path></g><g><path d="M703.84 658.68L674.56 568.64C670.2 555.29 655.85 544.43 642.5 544.43H507.9C494.55 544.43 487.19 555.29 491.55 568.64L525.97 674.53H708.98 802.23C810.09 674.53 816.51 668.11 816.51 660.25V658.68H703.84Z" fill="#6c98c7" stroke="#6e99c7" stroke-width="4" opacity="1"></path><path d="M600.6 623.1C606.46 619.03 606.21 608.53 600.05 599.66 593.88 590.79 584.13 586.9 578.27 590.97 572.41 595.04 572.65 605.53 578.82 614.41 584.98 623.28 594.74 627.18 600.6 623.1Z" fill="#ffffff" stroke="#ffffff" stroke-width="4" opacity="1"></path></g><g><path d="M1018.98 1001.02H1083.96C1084.7 1001.02 1084.88 1002.03 1084.14 1002.31 1077.99 1004.24 1065.67 1008.56 1052.62 1015.45 1039.85 1022.16 1026.33 1031.35 1017.24 1043.11H975.14C975.14 1043.11 976.8 1036.22 982.86 1027.58 988.93 1018.85 999.59 1008.46 1017.51 1001.39 1017.97 1001.11 1018.52 1001.02 1018.98 1001.02Z" fill="#6c98c7" opacity="1" stroke-width="4" stroke="none"></path><path d="M1052.62 1015.36C1039.94 1022.07 1026.43 1031.16 1017.33 1043.02H975.23C975.23 1043.02 976.8 1036.13 982.86 1027.49L1052.62 1015.36Z" fill="#1c2631" opacity="0.3" stroke-width="4" stroke="none"></path><path d="M1108.87 1063.61H1011.17V1042.38C1011.17 1042.38 1032.4 1027.86 1059.97 1027.86 1083.22 1027.86 1102.07 1038.24 1107.3 1041.46 1108.22 1042.01 1108.77 1043.02 1108.77 1044.12L1108.87 1063.61Z" fill="#6c98c7" opacity="1" stroke-width="4" stroke="none"></path><path d="M1011.63 1063.61H913.57V1042.56C913.57 1042.38 913.66 1042.29 913.75 1042.19 915.86 1040.82 936.27 1027.76 962.37 1027.76 989.94 1027.76 1011.63 1042.29 1011.63 1042.29V1063.61Z" fill="#6c98c7" opacity="1" stroke-width="4" stroke="none"></path><path d="M914.03 1042.38C914.03 1042.38 935.26 1027.86 962.83 1027.86 990.4 1027.86 1011.63 1042.38 1011.63 1042.38V1063.61" stroke="#000000" stroke-width="4" stroke-linecap="round" stroke-linejoin="round" opacity="1" fill="none"></path></g></svg>