<svg xmlns="http://www.w3.org/2000/svg" height="1200" width="1600" version="1.1" xmlns:xlink="http://www.w3.org/1999/xlink" xmlns:svgjs="http://svgjs.com/svgjs"><rect fill="#eff3fb" width="1600" height="1200"></rect><g><path d="M417.53 290.92L1182.47 294.15C1208.31 294.15 1215.4 296.86 1215.4 322.7L1229.25 360.31V925.11C1229.25 950.95 1208.31 971.89 1182.47 971.89H417.53C391.69 971.89 370.75 950.95 370.75 925.11V360.31L383.35 322.7C383.35 296.86 391.69 290.92 417.53 290.92Z" fill="#ffffff" opacity="1" stroke-width="4" stroke="none"></path><path d="M417.53 275.92H1182.47C1208.31 275.92 1229.25 296.86 1229.25 322.7V360.31H370.75V322.7C370.75 296.86 391.69 275.92 417.53 275.92Z" fill="#d5d5d5" opacity="1" stroke-width="4" stroke="none"></path><path d="M436.7 333.74C444.75 333.74 451.28 327.21 451.28 319.16 451.28 311.1 444.75 304.57 436.7 304.57 428.64 304.57 422.11 311.1 422.11 319.16 422.11 327.21 428.64 333.74 436.7 333.74Z" fill="#ffffff" opacity="1" stroke-width="4" stroke="none"></path><path d="M484.1 333.74C492.16 333.74 498.69 327.21 498.69 319.16 498.69 311.1 492.16 304.57 484.1 304.57 476.05 304.57 469.52 311.1 469.52 319.16 469.52 327.21 476.05 333.74 484.1 333.74Z" fill="#ffffff" opacity="1" stroke-width="4" stroke="none"></path><path d="M531.51 333.74C539.56 333.74 546.1 327.21 546.1 319.16 546.1 311.1 539.56 304.57 531.51 304.57 523.46 304.57 516.92 311.1 516.92 319.16 516.92 327.21 523.46 333.74 531.51 333.74Z" fill="#ffffff" opacity="1" stroke-width="4" stroke="none"></path><path d="M692.27 318.84H907.83" stroke="#ffffff" stroke-width="4" stroke-linecap="round" stroke-linejoin="round" opacity="1" fill="none"></path></g><g><path d="M647.46 591.41H577.75V805.76H647.46V591.41Z" fill="#6c98c7" opacity="1" stroke-width="4" stroke="none"></path><path d="M899.62 560.04H829.92V805.76H899.62V560.04Z" fill="#264c9a" opacity="1" stroke-width="4" stroke="none"></path><path d="M773.45 514.73H703.75V805.76H773.45V514.73Z" fill="#264c9a" opacity="1" stroke-width="4" stroke="none"></path><path d="M1025.62 682.03H955.91V805.76H1025.62V682.03Z" fill="#264c9a" opacity="1" stroke-width="4" stroke="none"></path><path d="M542.9 809.24H1060.47" stroke="#231f20" stroke-width="4" stroke-linecap="round" stroke-linejoin="round" opacity="1" fill="none"></path></g><g><path d="M1302.37 807.67H1236.52V873.04H1302.37C1320.34 873.04 1335.05 858.33 1335.05 840.35 1335.05 822.38 1320.34 807.67 1302.37 807.67Z" stroke="#000000" stroke-width="4" stroke-linecap="round" stroke-linejoin="round" opacity="1" fill="none"></path><path d="M1203.13 971.11C1242.36 971.11 1274.35 939.12 1274.35 899.9V751.63H1073.54V899.9C1073.54 939.12 1105.53 971.11 1144.76 971.11H1203.13Z" fill="#264c9a" opacity="1" stroke-width="4" stroke="none"></path><path d="M1184.45 971.11C1145.22 970.88 1113.24 939.12 1113.24 899.9V751.63H1073.54V899.9C1073.54 939.12 1105.53 971.11 1144.76 971.11H1184.45Z" fill="#000000" opacity="0.2" stroke-width="4" stroke="none"></path><path d="M1173.94 805.33C1214.1 805.33 1239.32 790.62 1253.33 778.48 1265.94 767.5 1270.38 756.3 1271.54 752.79 1271.78 752.33 1271.31 751.63 1270.61 751.63H1074.94C1074.71 751.63 1074.48 751.86 1074.71 752.09 1077.04 757 1100.86 805.33 1173.94 805.33Z" fill="#000000" opacity="1" stroke-width="4" stroke="none"></path></g><g><path d="M351.01 544.91C346.27 522.97 346.18 500.28 350.74 478.29 355.28 456.31 364.39 435.52 377.45 417.26 385.14 442.09 377.88 464.17 393.49 479.16 389.68 435.11 411.13 430.27 413.78 378.49 464.98 424.25 438.38 469.04 469.34 507.13 469.34 507.13 479.04 486.6 465.54 444.57 488.07 453.82 509.87 477.72 516.64 507.74 521.54 529.7 517.53 552.7 505.49 571.7 493.44 590.7 474.35 604.14 452.39 609.07 430.44 613.99 407.44 610 388.42 597.98 369.42 585.94 355.96 566.86 351.01 544.91Z" fill="#264c9a" opacity="1" stroke-width="4" stroke="none"></path></g><g><path d="M409.88 859.01L230.63 939.22" stroke="#231f20" stroke-width="4" stroke-linecap="round" stroke-linejoin="round" opacity="1" fill="none"></path><path d="M498.04 893.43L458.33 1021.42" stroke="#231f20" stroke-width="4" stroke-linecap="round" stroke-linejoin="round" opacity="1" fill="none"></path></g><g><path d="M1097.55 409.33L1226.41 241.01" stroke="#231f20" stroke-width="4" stroke-linecap="round" stroke-linejoin="round" opacity="1" fill="none"></path><path d="M1262.28 371.92L1433.75 235.79" stroke="#231f20" stroke-width="4" stroke-linecap="round" stroke-linejoin="round" opacity="1" fill="none"></path></g><g><path d="M281.87 757.72C267.29 757.72 255.48 769.53 255.48 784.11 255.48 798.69 267.29 810.5 281.87 810.5 296.45 810.5 308.26 798.69 308.26 784.11 308.26 769.53 296.45 757.72 281.87 757.72Z" stroke="#264c9a" stroke-width="4" stroke-linecap="round" stroke-linejoin="round" opacity="1" fill="none"></path></g><g><path d="M1306.71 498.22L1280.05 491.89 1302.68 476.55 1294.92 450.27 1319.56 462.16 1338.35 442.31 1340.37 469.64 1367.02 475.97 1344.39 491.41 1352.16 517.58 1327.52 505.69 1308.72 525.54 1306.71 498.22Z" fill="#6c98c7" opacity="1" stroke-width="4" stroke="none"></path></g><g><path d="M585.16 223.43C599.35 223.43 610.86 211.92 610.86 197.73 610.86 183.53 599.35 172.02 585.16 172.02 570.96 172.02 559.45 183.53 559.45 197.73 559.45 211.92 570.96 223.43 585.16 223.43Z" stroke="#ffffff" stroke-width="4" stroke-linecap="round" stroke-linejoin="round" opacity="1" fill="none"></path></g></svg>