<svg width="392" height="392" viewBox="0 0 392 392" fill="none" xmlns="http://www.w3.org/2000/svg">
<rect x="228" y="23" width="50" height="4" fill="#3C31DD"/>
<rect x="251" y="50" width="50" height="4" transform="rotate(-90 251 50)" fill="#3C31DD"/>
<rect x="285" y="23" width="50" height="4" fill="#3C31DD"/>
<rect x="308" y="50" width="50" height="4" transform="rotate(-90 308 50)" fill="#3C31DD"/>
<rect x="342" y="23" width="50" height="4" fill="#3C31DD"/>
<rect x="365" y="50" width="50" height="4" transform="rotate(-90 365 50)" fill="#3C31DD"/>
<rect y="23" width="50" height="4" fill="#3C31DD"/>
<rect x="23" y="50" width="50" height="4" transform="rotate(-90 23 50)" fill="#3C31DD"/>
<rect x="57" y="23" width="50" height="4" fill="#3C31DD"/>
<rect x="80" y="50" width="50" height="4" transform="rotate(-90 80 50)" fill="#3C31DD"/>
<rect x="114" y="23" width="50" height="4" fill="#3C31DD"/>
<rect x="137" y="50" width="50" height="4" transform="rotate(-90 137 50)" fill="#3C31DD"/>
<rect x="171" y="23" width="50" height="4" fill="#3C31DD"/>
<rect x="194" y="50" width="50" height="4" transform="rotate(-90 194 50)" fill="#3C31DD"/>
<rect x="228" y="80" width="50" height="4" fill="#3C31DD"/>
<rect x="251" y="107" width="50" height="4" transform="rotate(-90 251 107)" fill="#3C31DD"/>
<rect x="285" y="80" width="50" height="4" fill="#3C31DD"/>
<rect x="308" y="107" width="50" height="4" transform="rotate(-90 308 107)" fill="#3C31DD"/>
<rect x="342" y="80" width="50" height="4" fill="#3C31DD"/>
<rect x="365" y="107" width="50" height="4" transform="rotate(-90 365 107)" fill="#3C31DD"/>
<rect y="80" width="50" height="4" fill="#3C31DD"/>
<rect x="23" y="107" width="50" height="4" transform="rotate(-90 23 107)" fill="#3C31DD"/>
<rect x="57" y="80" width="50" height="4" fill="#3C31DD"/>
<rect x="80" y="107" width="50" height="4" transform="rotate(-90 80 107)" fill="#3C31DD"/>
<rect x="114" y="80" width="50" height="4" fill="#3C31DD"/>
<rect x="137" y="107" width="50" height="4" transform="rotate(-90 137 107)" fill="#3C31DD"/>
<rect x="171" y="80" width="50" height="4" fill="#3C31DD"/>
<rect x="194" y="107" width="50" height="4" transform="rotate(-90 194 107)" fill="#3C31DD"/>
<rect x="228" y="137" width="50" height="4" fill="#3C31DD"/>
<rect x="251" y="164" width="50" height="4" transform="rotate(-90 251 164)" fill="#3C31DD"/>
<rect x="285" y="137" width="50" height="4" fill="#3C31DD"/>
<rect x="308" y="164" width="50" height="4" transform="rotate(-90 308 164)" fill="#3C31DD"/>
<rect x="342" y="137" width="50" height="4" fill="#3C31DD"/>
<rect x="365" y="164" width="50" height="4" transform="rotate(-90 365 164)" fill="#3C31DD"/>
<rect y="137" width="50" height="4" fill="#3C31DD"/>
<rect x="23" y="164" width="50" height="4" transform="rotate(-90 23 164)" fill="#3C31DD"/>
<rect x="57" y="137" width="50" height="4" fill="#3C31DD"/>
<rect x="80" y="164" width="50" height="4" transform="rotate(-90 80 164)" fill="#3C31DD"/>
<rect x="114" y="137" width="50" height="4" fill="#3C31DD"/>
<rect x="137" y="164" width="50" height="4" transform="rotate(-90 137 164)" fill="#3C31DD"/>
<rect x="171" y="137" width="50" height="4" fill="#3C31DD"/>
<rect x="194" y="164" width="50" height="4" transform="rotate(-90 194 164)" fill="#3C31DD"/>
<rect x="228" y="194" width="50" height="4" fill="#3C31DD"/>
<rect x="251" y="221" width="50" height="4" transform="rotate(-90 251 221)" fill="#3C31DD"/>
<rect x="285" y="194" width="50" height="4" fill="#3C31DD"/>
<rect x="308" y="221" width="50" height="4" transform="rotate(-90 308 221)" fill="#3C31DD"/>
<rect x="342" y="194" width="50" height="4" fill="#3C31DD"/>
<rect x="365" y="221" width="50" height="4" transform="rotate(-90 365 221)" fill="#3C31DD"/>
<rect y="194" width="50" height="4" fill="#3C31DD"/>
<rect x="23" y="221" width="50" height="4" transform="rotate(-90 23 221)" fill="#3C31DD"/>
<rect x="57" y="194" width="50" height="4" fill="#3C31DD"/>
<rect x="80" y="221" width="50" height="4" transform="rotate(-90 80 221)" fill="#3C31DD"/>
<rect x="114" y="194" width="50" height="4" fill="#3C31DD"/>
<rect x="137" y="221" width="50" height="4" transform="rotate(-90 137 221)" fill="#3C31DD"/>
<rect x="228" y="251" width="50" height="4" fill="#3C31DD"/>
<rect x="251" y="278" width="50" height="4" transform="rotate(-90 251 278)" fill="#3C31DD"/>
<rect x="285" y="251" width="50" height="4" fill="#3C31DD"/>
<rect x="308" y="278" width="50" height="4" transform="rotate(-90 308 278)" fill="#3C31DD"/>
<rect x="342" y="251" width="50" height="4" fill="#3C31DD"/>
<rect x="365" y="278" width="50" height="4" transform="rotate(-90 365 278)" fill="#3C31DD"/>
<rect y="251" width="50" height="4" fill="#3C31DD"/>
<rect x="23" y="278" width="50" height="4" transform="rotate(-90 23 278)" fill="#3C31DD"/>
<rect x="57" y="251" width="50" height="4" fill="#3C31DD"/>
<rect x="80" y="278" width="50" height="4" transform="rotate(-90 80 278)" fill="#3C31DD"/>
<rect x="114" y="251" width="50" height="4" fill="#3C31DD"/>
<rect x="137" y="278" width="50" height="4" transform="rotate(-90 137 278)" fill="#3C31DD"/>
<rect x="171" y="251" width="50" height="4" fill="#3C31DD"/>
<rect x="194" y="278" width="50" height="4" transform="rotate(-90 194 278)" fill="#3C31DD"/>
<rect x="228" y="308" width="50" height="4" fill="#3C31DD"/>
<rect x="251" y="335" width="50" height="4" transform="rotate(-90 251 335)" fill="#3C31DD"/>
<rect x="285" y="308" width="50" height="4" fill="#3C31DD"/>
<rect x="308" y="335" width="50" height="4" transform="rotate(-90 308 335)" fill="#3C31DD"/>
<rect x="342" y="308" width="50" height="4" fill="#3C31DD"/>
<rect x="365" y="335" width="50" height="4" transform="rotate(-90 365 335)" fill="#3C31DD"/>
<rect y="308" width="50" height="4" fill="#3C31DD"/>
<rect x="23" y="335" width="50" height="4" transform="rotate(-90 23 335)" fill="#3C31DD"/>
<rect x="57" y="308" width="50" height="4" fill="#3C31DD"/>
<rect x="80" y="335" width="50" height="4" transform="rotate(-90 80 335)" fill="#3C31DD"/>
<rect x="114" y="308" width="50" height="4" fill="#3C31DD"/>
<rect x="137" y="335" width="50" height="4" transform="rotate(-90 137 335)" fill="#3C31DD"/>
<rect x="171" y="308" width="50" height="4" fill="#3C31DD"/>
<rect x="194" y="335" width="50" height="4" transform="rotate(-90 194 335)" fill="#3C31DD"/>
<rect x="228" y="365" width="50" height="4" fill="#3C31DD"/>
<rect x="251" y="392" width="50" height="4" transform="rotate(-90 251 392)" fill="#3C31DD"/>
<rect x="285" y="365" width="50" height="4" fill="#3C31DD"/>
<rect x="308" y="392" width="50" height="4" transform="rotate(-90 308 392)" fill="#3C31DD"/>
<rect x="342" y="365" width="50" height="4" fill="#3C31DD"/>
<rect x="365" y="392" width="50" height="4" transform="rotate(-90 365 392)" fill="#3C31DD"/>
<rect y="365" width="50" height="4" fill="#3C31DD"/>
<rect x="23" y="392" width="50" height="4" transform="rotate(-90 23 392)" fill="#3C31DD"/>
<rect x="57" y="365" width="50" height="4" fill="#3C31DD"/>
<rect x="80" y="392" width="50" height="4" transform="rotate(-90 80 392)" fill="#3C31DD"/>
<rect x="114" y="365" width="50" height="4" fill="#3C31DD"/>
<rect x="137" y="392" width="50" height="4" transform="rotate(-90 137 392)" fill="#3C31DD"/>
<rect x="171" y="365" width="50" height="4" fill="#3C31DD"/>
<rect x="194" y="392" width="50" height="4" transform="rotate(-90 194 392)" fill="#3C31DD"/>
<rect x="171" y="171" width="50" height="50" fill="#FFFFFB"/>
</svg>
