<svg width="392" height="392" viewBox="0 0 392 392" fill="none" xmlns="http://www.w3.org/2000/svg">
<circle cx="196" cy="196" r="194" stroke="#3C31DD" stroke-width="4"/>
<path d="M234 198.5C234 251.84 229.529 300.073 222.326 334.92C218.72 352.361 214.452 366.342 209.773 375.916C207.431 380.706 205.037 384.289 202.654 386.647C200.278 389 198.058 390 196 390C193.942 390 191.722 389 189.346 386.647C186.963 384.289 184.568 380.706 182.227 375.916C177.548 366.342 173.28 352.361 169.674 334.92C162.471 300.073 158 251.84 158 198.5C158 145.16 162.471 96.9273 169.674 62.0797C173.28 44.6395 177.548 30.6577 182.227 21.0844C184.568 16.2936 186.963 12.7112 189.346 10.3526C191.722 8.00005 193.942 7 196 7C198.058 7 200.278 8.00005 202.654 10.3526C205.037 12.7112 207.431 16.2936 209.773 21.0844C214.452 30.6577 218.72 44.6395 222.326 62.0797C229.529 96.9273 234 145.16 234 198.5Z" stroke="#3C31DD" stroke-width="4"/>
<path d="M214.576 225.3C168.382 251.97 124.376 272.215 90.5954 283.4C73.6891 288.998 59.4461 292.292 48.816 293.027C43.4963 293.394 39.1966 293.112 35.9627 292.228C32.7371 291.346 30.7613 289.924 29.7321 288.141C28.7029 286.358 28.4593 283.936 29.3083 280.702C30.1596 277.459 32.0648 273.594 35.043 269.171C40.9944 260.332 50.9686 249.645 64.2697 237.802C90.8467 214.14 130.382 186.152 176.576 159.482C222.77 132.812 266.776 112.567 300.557 101.382C317.463 95.7843 331.706 92.4902 342.336 91.7555C347.656 91.3879 351.955 91.6703 355.189 92.5545C358.415 93.4364 360.391 94.8583 361.42 96.641C362.449 98.4237 362.693 100.846 361.844 104.08C360.992 107.323 359.087 111.188 356.109 115.611C350.158 124.45 340.183 135.137 326.882 146.98C300.305 170.642 260.77 198.63 214.576 225.3Z" stroke="#3C31DD" stroke-width="4"/>
<path d="M214.576 159.482C260.77 186.152 300.305 214.14 326.882 237.802C340.183 249.645 350.158 260.332 356.109 269.171C359.087 273.594 360.992 277.459 361.844 280.702C362.693 283.936 362.449 286.358 361.42 288.141C360.391 289.924 358.415 291.346 355.189 292.228C351.955 293.112 347.656 293.394 342.336 293.026C331.706 292.292 317.463 288.998 300.557 283.4C266.776 272.215 222.77 251.97 176.576 225.3C130.382 198.63 90.8467 170.642 64.2696 146.98C50.9686 135.137 40.9943 124.449 35.043 115.611C32.0648 111.188 30.1596 107.323 29.3083 104.08C28.4592 100.846 28.7028 98.4236 29.7321 96.641C30.7613 94.8583 32.737 93.4363 35.9627 92.5544C39.1966 91.6703 43.4963 91.3878 48.816 91.7555C59.4461 92.4901 73.689 95.7842 90.5953 101.382C124.376 112.567 168.382 132.812 214.576 159.482Z" stroke="#3C31DD" stroke-width="4"/>
<path d="M221 192C221 205.807 209.807 217 196 217C182.193 217 171 205.807 171 192C171 178.193 182.193 167 196 167C209.807 167 221 178.193 221 192Z" fill="#FFFFFB"/>
</svg>
