<svg width="198" height="69" viewBox="0 0 198 69" fill="none" xmlns="http://www.w3.org/2000/svg">
<path d="M26.9231 42.7232C29.0449 40.9527 30.8838 37.6448 30.8838 34.8028C30.8838 30.004 27.9604 26.5564 24.3298 24.0405L24.2355 23.9473C23.1039 22.9689 21.7365 22.1303 20.5106 21.2917C18.2474 19.7076 15.937 18.1236 13.6266 16.5861C13.0136 16.1668 12.7779 15.7009 12.7779 14.9554C12.7779 13.8839 13.2494 13.4646 13.9566 13.2316C14.7582 12.9986 15.8427 13.0452 16.6914 13.0452L29.375 21.1053V11.5544H14.8054C11.2691 11.5544 7.68559 11.8805 4.62078 14.1168C2.73475 15.5145 1.50883 17.4247 1.50883 19.8474C1.50883 22.9223 3.44201 24.9257 5.70525 26.5098L21.1236 37.2721C22.0194 37.8778 22.4438 38.9494 22.4438 40.1141C22.4438 43.3288 18.4831 45.0993 15.2769 45.0993C11.882 45.0993 8.44 44.1209 5.61095 42.2573C5.5638 42.2107 5.5638 42.1175 5.5638 42.0243C5.5638 41.8379 5.79955 41.5584 6.22391 41.5584C6.60112 41.5584 6.97832 41.6516 7.40268 41.6516C10.6561 41.6516 12.7779 39.0891 12.7779 36.0142C12.7779 32.5199 9.47732 30.3768 6.36536 30.3768C3.30056 30.3768 0 32.5199 0 36.0142C0 39.2755 2.31039 41.8379 4.76223 43.4686C7.73274 45.472 11.4577 46.5901 15.0411 46.5901C19.0489 46.5901 23.8112 45.3322 26.9231 42.7232Z" fill="#1D1D1D"/>
<path d="M50.125 42.7232C50.125 43.9345 49.1348 45.0993 48.0504 45.0993C46.9659 45.0993 45.9757 43.9345 45.9757 42.7232V15.3282C45.9757 14.1634 46.9659 12.9986 48.0504 12.9986C49.1348 12.9986 50.125 14.1634 50.125 15.3282V42.7232ZM50.7851 11.7873C49.9364 11.6009 49.0877 11.5544 48.239 11.5078C47.2017 11.5078 46.3058 11.6009 45.3156 11.7873L44.9384 11.8339C38.1959 13.1384 33.245 19.2883 33.245 26.1371V31.9608C33.245 38.763 38.1959 44.8197 44.9384 46.2174C45.0799 46.264 45.2213 46.264 45.3156 46.264V46.3106C46.1643 46.497 47.0131 46.5435 47.8618 46.5435C48.8991 46.5435 49.795 46.497 50.7851 46.3106L51.1623 46.2174C58.0935 44.9129 62.8557 38.6232 62.8557 31.8211V26.2302C62.8557 25.2519 62.7614 24.2735 62.5728 23.2951C61.3941 17.5645 56.8676 13.0452 51.1623 11.8339C51.0209 11.8339 50.8794 11.7873 50.7851 11.7873Z" fill="#1D1D1D"/>
<path d="M81.5621 45.0993C79.9118 45.0993 79.016 44.1675 79.016 43.0027V0H64.022V1.49088C65.6723 1.49088 66.5681 2.42268 66.5681 3.58744V43.0027C66.5681 44.1675 65.6723 45.0993 64.022 45.0993V46.5901H81.5621V45.0993Z" fill="#1D1D1D"/>
<path d="M95.4749 46.5901C101.746 46.5901 101.699 46.5901 101.699 46.5901V45.0993H98.3983C97.3138 45.0993 96.3708 44.1675 96.3708 43.0027V13.0918H101.699V11.6009H96.3708V0H94.9563C94.9563 6.56921 90.2412 11.6009 83.923 11.6009V34.7097C83.923 41.2323 89.1567 46.5901 95.4749 46.5901Z" fill="#1D1D1D"/>
<path d="M113.145 61.5456C119.935 45.239 126.819 28.6995 133.986 11.6009H120.548L126.442 25.7643L125.027 29.1654C124.933 29.3518 124.744 29.4916 124.461 29.4916C124.178 29.4916 123.943 29.3518 123.895 29.1654L116.54 11.6009H101.452V13.0918C103.291 13.0918 104.799 14.21 105.318 15.4213L118.049 45.8913L111.731 60.9865C110.646 63.549 108.713 65.5989 106.12 66.6705C105.978 66.7637 105.884 66.7637 105.79 66.7637C105.412 66.7637 105.129 66.4841 105.129 66.1114C105.129 66.1114 105.129 65.9716 105.271 65.7387C105.365 65.5057 105.507 65.2262 105.648 64.9001C105.978 64.2478 106.308 63.3626 106.308 62.291C106.308 58.7968 103.432 55.9082 99.9428 55.9082C96.4537 55.9082 93.5775 58.7968 93.5775 62.291C93.5775 67.1364 98.1511 69 102.017 69C106.921 69 111.212 66.0648 113.145 61.5456Z" fill="#1D1D1D"/>
<path d="M153.257 43.0959C153.257 44.2606 152.267 45.4254 151.182 45.4254H149.108V13.0918H151.182C152.267 13.0918 153.257 14.2566 153.257 15.4679V43.0959ZM153.917 46.6833C160.99 45.239 166.035 39.2755 166.035 32.1006V26.4632C166.035 19.2883 160.99 13.2316 153.917 11.8339C153.068 11.6941 152.172 11.6009 151.324 11.6009H133.689V13.0918C135.387 13.0918 136.33 14.0236 136.33 15.1884V54.6502C136.33 55.7684 135.387 56.7002 133.689 56.7002V58.1911H151.748V56.7002C150.051 56.7002 149.108 55.7684 149.108 54.6502V46.9163C150.711 46.9163 152.361 46.9629 153.917 46.6833Z" fill="#1D1D1D"/>
<path d="M181.12 13.185C181.827 13.0452 182.487 12.9986 183.195 12.9986C184.279 13.0452 185.269 14.1634 185.269 15.3747V25.2519C185.269 26.37 184.326 27.2552 183.195 27.2552H181.12V13.185ZM190.173 42.8163C190.597 42.9561 190.739 43.1425 190.739 43.4686C190.692 45.3322 185.364 45.5186 184.09 45.5186C183.855 45.5186 183.572 45.5186 183.289 45.472C182.157 45.3322 181.12 43.8413 181.12 42.6766V28.6995L198 28.8859V26.2302C198 19.0554 192.955 13.185 185.929 11.7873C185.128 11.6475 184.279 11.5544 183.478 11.5544C175.179 11.4612 168.389 17.9372 168.389 26.2768V31.7745C168.389 38.8562 173.293 44.5868 180.083 46.1708C180.224 46.2174 180.366 46.2174 180.46 46.264C181.639 46.4504 182.912 46.5436 184.09 46.5901C188.57 46.6367 192.53 45.5186 195.548 41.9311C196.774 40.4868 197.859 38.53 197.859 36.4801C197.906 33.079 194.888 30.3302 191.587 30.2836C188.098 30.237 185.175 33.0324 185.128 36.5267C185.128 39.6016 187.155 42.1641 190.173 42.8163Z" fill="#1D1D1D"/>
</svg>
