<svg width="24" height="24" viewBox="0 0 24 24" fill="none" xmlns="http://www.w3.org/2000/svg">
<path d="M12.0503 0C5.46348 0 0.102968 5.1631 0.100645 11.5084C0.0990968 13.5375 0.650323 15.5179 1.69548 17.2622L0 23.2258L6.33523 21.6255C8.09746 22.5474 10.0569 23.0282 12.0457 23.0268H12.0503C18.6372 23.0268 23.9977 17.863 24 11.5177C24.0015 8.44413 22.7597 5.55097 20.503 3.37626C18.247 1.20077 15.247 0.000774194 12.0503 0ZM12.0503 21.0828H12.0465C10.2643 21.0828 8.51613 20.6214 6.99097 19.7497L6.6271 19.5422L2.86916 20.4914L3.87252 16.961L3.63639 16.5995C2.64457 15.0868 2.11659 13.3172 2.11742 11.5084C2.11974 6.23381 6.576 1.944 12.0542 1.944C14.7066 1.94477 17.2003 2.94116 19.0761 4.7489C20.952 6.55665 21.984 8.96052 21.9825 11.5169C21.9801 16.7915 17.5246 21.0828 12.0495 21.0828H12.0503ZM17.4983 13.9177C17.1995 13.7745 15.7316 13.0785 15.4575 12.9817C15.1843 12.8865 14.9853 12.8369 14.7863 13.1249C14.5881 13.4129 14.0152 14.0609 13.8418 14.2521C13.6668 14.4441 13.4926 14.4674 13.1938 14.3241C12.895 14.1801 11.9326 13.8766 10.793 12.8965C9.90503 12.1347 9.30581 11.1933 9.13161 10.9045C8.95742 10.6173 9.11303 10.4617 9.26245 10.3185C9.39639 10.1907 9.56129 9.98323 9.70994 9.81523C9.85858 9.64723 9.90813 9.52723 10.0088 9.33523C10.1079 9.144 10.0583 8.97523 9.98323 8.832C9.90813 8.68723 9.312 7.272 9.06194 6.69677C8.82039 6.13626 8.57419 6.21135 8.39071 6.20206C8.21652 6.19432 8.01832 6.192 7.81781 6.192C7.62039 6.192 7.296 6.264 7.02194 6.552C6.74864 6.84 5.97677 7.53523 5.97677 8.95045C5.97677 10.3665 7.04671 11.7337 7.19613 11.9257C7.34555 12.1169 9.30194 15.0225 12.2973 16.2689C13.0095 16.5639 13.5654 16.7412 13.9997 16.8743C14.7151 17.0934 15.3662 17.0617 15.8803 16.9881C16.4532 16.9053 17.647 16.2929 17.8947 15.6217C18.144 14.9505 18.144 14.3745 18.0697 14.2545C17.9969 14.1345 17.7972 14.0625 17.4983 13.9177V13.9177Z" fill="#1D1D1D"/>
</svg>
